<svg width="180" height="102" viewBox="0 0 180 102" fill="none" xmlns="http://www.w3.org/2000/svg">
<path d="M36.1035 75.581C38.8005 72.8054 42.6988 71.5367 46.5138 72.4991C50.5219 73.7164 53.1475 77.5881 53.647 81.9106C54.1164 86.0919 51.6147 90.0167 47.9224 91.2711C46.3173 91.8897 44.5468 92.0537 42.7922 91.6359C40.0704 91.124 38.0385 88.7315 37.6087 85.671C37.2428 83.0646 38.5544 80.7894 40.7551 80.2148C41.9556 79.8301 43.3763 79.9799 44.281 80.9711C45.0522 81.9893 45.6768 83.625 44.4353 84.3213C43.3274 84.992 42.1272 83.9164 42.154 82.7327C42.241 81.8315 42.8764 81.5535 43.4821 81.1349C42.1917 79.6341 39.7533 80.5801 38.9588 82.0727C37.9887 84.0479 38.0986 86.534 39.6844 88.1169C41.0617 89.3749 42.7369 89.9055 44.3956 89.8689C46.826 89.7032 49.2917 88.8853 50.6005 86.5417C52.1153 83.8589 51.9153 80.9492 50.7552 78.0954C48.2415 72.1331 40.7346 72.1003 36.419 75.3863C36.3132 75.4504 36.2085 75.5159 36.1035 75.581Z" fill="#3871C1"/>
<path d="M52.0771 75.2434C54.752 76.2715 56.8143 78.578 57.8323 81.2454C58.8508 83.9126 58.828 86.9476 57.3375 89.4453C57.8732 86.7041 56.8835 83.983 56.2808 81.3889C55.2653 78.8972 53.7684 76.9851 52.0771 75.2434Z" fill="#2F943D"/>
<path d="M34.4973 85.9297C33.9518 83.7993 33.8795 81.6906 34.5714 79.6569C35.1302 77.741 36.5586 76.4678 38.2363 75.9474C39.9136 75.4267 41.8399 75.6579 43.3905 76.7405C41.1379 76.6112 39.0659 77.3329 37.1791 78.5368C35.1356 80.1272 34.2916 82.4181 34.4524 85.2862C34.4648 85.5008 34.4822 85.7151 34.4973 85.9297Z" fill="#2F943D"/>
<path d="M155.319 36.2992C152.578 39.0308 148.659 40.2367 144.861 39.2123C140.873 37.9306 138.309 34.0171 137.88 29.6873C137.479 25.499 140.043 21.6147 143.755 20.4204C145.37 19.8278 147.143 19.6926 148.89 20.1384C151.604 20.6941 153.596 23.1192 153.977 26.1863C154.301 28.798 152.953 31.0519 150.743 31.5911C149.537 31.9565 148.119 31.7834 147.23 30.7775C146.475 29.7471 145.877 28.1017 147.13 27.4254C148.248 26.7729 149.431 27.8679 149.385 29.0508C149.284 29.9504 148.644 30.2181 148.031 30.6271C149.297 32.1481 151.75 31.242 152.57 29.7623C153.571 27.8031 153.501 25.3156 151.941 23.7071C150.584 22.4272 148.918 21.8694 147.259 21.8794C144.826 22.0056 142.347 22.7837 141.001 25.106C139.443 27.7639 139.596 30.6765 140.71 33.5487C143.127 39.5508 150.632 39.7046 155.001 36.489C155.108 36.4264 155.213 36.3627 155.319 36.2992Z" fill="#3871C1"/>
<path d="M139.341 36.3789C136.684 35.3076 134.659 32.9683 133.685 30.2848C132.709 27.6014 132.781 24.5675 134.312 22.094C133.732 24.8263 134.677 27.5629 135.238 30.1666C136.213 32.6743 137.679 34.6104 139.341 36.3789Z" fill="#2F943D"/>
<path d="M157.093 25.9812C157.603 28.1201 157.642 30.2296 156.918 32.2523C156.327 34.1585 154.879 35.4085 153.193 35.9021C151.508 36.3954 149.585 36.133 148.053 35.0258C150.302 35.1912 152.385 34.5032 154.291 33.3299C156.361 31.7726 157.242 29.4958 157.127 26.6253C157.118 26.4107 157.104 26.1961 157.093 25.9812Z" fill="#2F943D"/>
<path d="M158.655 78.5591C160.338 79.8032 162.441 81.4917 162.02 83.8171C161.647 85.8473 160.065 87.3993 158.32 88.3876C156.167 89.6128 153.958 90.8682 151.488 91.2299C150.452 91.385 149.408 91.2964 148.422 90.9874C147.436 90.6787 146.508 90.15 145.702 89.425C144.53 88.3664 143.56 86.9436 143.785 85.3478C143.851 85.3766 143.95 85.3591 144.004 85.4315C144.691 86.6393 145.382 87.8664 146.675 88.5757C148.159 89.3829 149.755 89.2962 151.135 88.6367C152.515 87.9774 153.679 86.7459 154.302 85.2634C155.434 82.565 154.058 79.6829 151.605 78.3232C150.152 77.5203 148.511 77.0373 146.918 77.5054C145.499 77.9219 144.762 79.2803 143.941 80.4077C143.401 78.7644 145.02 77.1887 146.307 76.3872C147.698 75.5261 149.261 75.2617 150.824 75.377C152.387 75.4922 153.95 75.9879 155.339 76.6469C156.423 77.126 157.508 77.7558 158.655 78.5591Z" fill="#F9DD0B"/>
<path d="M166.194 76.9507C162.1 74.354 158.307 70.6577 153.055 70.68C151.951 70.6839 150.887 70.8544 149.893 71.2118C148.898 71.5689 147.974 72.1134 147.148 72.8641C144.169 75.527 141.448 78.4901 138.033 80.6573C137.205 81.1742 136.32 81.5988 135.335 81.6938C138.996 79.0732 142.083 75.7582 145.303 72.62C146.832 71.1108 148.628 70.0581 150.545 69.5326C152.464 69.0067 154.503 69.0087 156.524 69.6073C159.633 70.5222 162.233 72.2439 164.799 74.2378C168.696 77.2606 171.983 80.9866 176.832 82.3658C176.962 82.4041 177.112 82.4385 177.215 82.5632C177.27 82.6352 177.235 82.7848 177.153 82.7791C173.353 82.8063 170.671 80.0561 167.818 78.0709C167.284 77.6883 166.736 77.3241 166.194 76.9507Z" fill="#2F943D"/>
<path d="M144.467 97.5881C143.542 97.0088 142.643 96.3315 142.197 95.3276C141.729 94.2609 141.272 93.1923 140.786 92.1455C139.401 88.9774 137.473 85.9896 134.688 83.9124C136.373 83.5076 138.077 84.4496 139.348 85.6119C141.726 87.8034 142.607 90.7745 143.979 93.5148C144.638 94.7974 145.531 95.9255 146.589 96.8663C147.647 97.8067 148.871 98.5595 150.194 99.091C151.109 99.4664 152.07 99.7427 153.056 99.9172C154.835 100.32 156.676 100.562 158.448 100.858C159.14 100.959 159.831 101.162 160.404 101.612C160.5 101.696 160.466 101.846 160.377 101.923C160.341 101.95 160.282 101.96 160.239 101.948C159.584 101.718 158.954 101.626 158.288 101.562C156.794 101.39 155.305 101.299 153.84 101.123C152.374 100.947 150.932 100.686 149.532 100.171C147.76 99.567 146.067 98.7143 144.467 97.5881Z" fill="#3871C1"/>
<path d="M172.63 83.8257C172.649 83.8968 172.597 83.947 172.541 83.9776C171.683 84.2135 170.818 84.4094 170.036 84.8362C165.893 87.0523 161.984 89.4311 158.166 92.2026C155.685 93.9978 152.53 94.6459 149.499 93.9423C147.502 93.4723 145.982 92.3492 144.722 90.9313C143.463 89.5126 142.465 87.7972 141.514 86.1438C141.147 85.4715 140.673 84.8798 140.11 84.3649C140.391 84.3357 140.663 84.3696 140.861 84.5595C142.352 85.913 143.328 87.4795 144.585 89.0149C145.49 90.1212 146.609 91.0862 147.859 91.7259C149.109 92.3658 150.49 92.6804 151.917 92.4857C156.015 91.9548 159.239 89.0647 162.863 87.1464C165.667 85.6817 168.491 84.3161 171.587 83.7916C171.922 83.7291 172.269 83.659 172.63 83.8257Z" fill="#F58614"/>
<path d="M146.162 84.18C146.495 83.9382 146.794 83.5574 146.684 83.1678C146.366 81.8537 145.736 80.1655 147.051 79.1746C148.081 78.4178 149.44 78.5835 150.53 79.1858C151.598 79.7815 152.321 80.7305 152.661 81.8148C153.002 82.8991 152.959 84.1185 152.499 85.2546C152.053 86.3576 151.186 87.1724 150.173 87.5847C149.158 87.9966 147.996 88.0059 146.959 87.4966C145.44 86.8804 145.098 85.5094 146.162 84.18Z" fill="#3871C1"/>
<path d="M130.954 74.1899C133.071 70.7896 136.077 66.3435 140.667 67.0741C137.546 68.1457 136.303 71.2523 134.913 74.0996C133.485 76.9741 131.203 78.9585 128.323 80.2322C126.634 80.9646 125.016 81.521 123.193 81.6231C122.359 81.65 121.397 81.9865 120.686 81.4394C123.284 80.9932 126.178 80.474 127.953 78.3064C129.032 76.973 129.957 75.5512 130.954 74.1899Z" fill="#2F943D"/>
<path d="M137.441 76.4837C137.934 75.6792 138.326 74.8932 138.785 74.0335C140.351 71.1345 140.954 67.5491 143.903 65.8532C145.232 65.1657 146.619 64.9168 148.134 64.9311C149.015 64.9368 150.216 64.9052 150.755 65.6267C149.616 66.1174 148.351 66.1397 147.148 66.4991C143.307 67.6587 142.476 71.9191 140.749 75.1743C138.387 79.5662 133.587 81.6546 128.909 81.7988C130.606 80.881 132.425 80.309 134.165 79.4034C134.444 79.2509 134.724 79.0988 134.973 78.92C135.858 78.3603 136.602 77.6737 137.441 76.4837Z" fill="#3871C1"/>
<path d="M165.806 82.1952C162.706 79.4364 159.946 76.1477 155.799 74.8059C153.845 74.1748 151.676 73.9147 149.655 74.2469C147.713 74.5389 145.93 75.4318 144.609 76.9576C143.344 78.4528 142.476 80.5718 140.388 80.9057C140.522 80.7386 140.73 80.64 140.862 80.4728C143.308 77.2316 145.795 73.5336 149.968 72.7434C152.128 72.3557 154.356 72.5185 156.443 73.1945C158.531 73.8709 160.478 75.0604 162.075 76.727C164.738 79.4806 166.976 82.4946 170.735 83.4971C170.865 83.5353 170.5 83.6622 170.323 83.6111C168.723 83.3852 167.128 83.144 165.806 82.1952Z" fill="#F58614"/>
<path d="M143.895 90.6389C145.045 91.9195 146.328 93.1383 147.768 94.0927C149.207 95.0475 150.804 95.7374 152.582 95.9602C158.278 96.6971 162.93 93.1008 167.085 89.4712C168.234 88.4674 169.433 87.7409 170.886 87.1731C172.342 86.6253 173.758 86.3101 175.308 86.3998C175.454 86.4148 175.502 86.5696 175.465 86.6991C175.452 86.7423 175.396 86.7729 175.356 86.7799C172.438 86.9353 169.856 88.1558 167.737 90.2542C163.6 94.3306 159.08 98.3122 153.125 97.499C151.228 97.2465 149.531 96.4516 148.031 95.3521C146.531 94.2528 145.229 92.8487 144.121 91.377C143.989 91.2042 143.807 91.0448 143.895 90.6389Z" fill="#2F943D"/>
<path d="M133.207 85.3659C136.258 87.3978 137.518 90.9965 139.309 94.0287C140.112 95.3681 141.22 96.3555 142.421 97.2649C143.622 98.1742 144.917 99.0054 146.094 100.032C146.221 100.173 146.348 100.313 146.4 100.488C144.546 100.125 142.752 99.4195 141.166 98.4031C139.58 97.3862 138.201 96.0588 137.176 94.4516C134.745 90.5942 132.833 85.6399 128.118 84.0932C128.329 84.0145 128.534 84.0184 128.745 83.9809C130.426 83.9676 131.998 84.349 133.207 85.3659Z" fill="#2F943D"/>
<path d="M114.328 80.2342C117.023 80.0685 119.801 79.5904 121.891 77.5588C125.096 74.4471 127.27 70.7232 131.198 68.7909C130.995 69.257 130.578 69.5566 130.306 69.9738C129.16 71.57 128.4 73.2609 127.329 74.9259C124.799 78.8364 120.188 80.7276 115.73 80.6313C115.234 80.6396 114.747 80.5558 114.328 80.2342Z" fill="#3871C1"/>
<path d="M112.816 81.7893C115.147 82.1468 117.387 82.8903 119.157 84.6589C122.378 87.9054 125.29 90.7984 128.644 93.5304C128.568 93.5643 128.496 93.6184 128.452 93.6055C125.043 92.2743 121.865 90.8609 119.106 88.595C117.651 86.2992 115.994 84.0197 113.685 82.4877C113.39 82.2953 113.132 82.0462 112.816 81.7893Z" fill="#2F943D"/>
<path d="M126.641 70.9192C126.104 71.2823 125.603 71.6792 125.182 72.1842C123.382 74.348 121.882 76.7036 119.286 77.9669C116.674 79.2538 113.739 79.3103 111 78.636C113.052 78.3293 115.335 78.5128 117.043 76.9787C119.937 74.4142 122.445 71.1823 126.393 70.5983C126.741 70.5986 126.797 70.6807 126.641 70.9192Z" fill="#2F943D"/>
<path d="M119.924 83.33C123.748 83.341 127.985 84.7279 129.884 88.3551C131.539 91.5352 133.388 94.6598 136.385 96.6582C134.211 96.3938 132.401 94.8574 130.861 93.2317C129.45 91.7464 128.526 90.133 127.361 88.5421C125.611 86.1972 123.22 84.2741 120.33 83.6622C120.186 83.6213 119.998 83.624 119.924 83.33Z" fill="#3871C1"/>
<path d="M109.632 80.2565C113.24 82.4466 115.067 86.3529 117.392 89.7396C118.302 91.0491 119.864 91.5461 121.202 92.3898C121.689 92.7114 122.14 93.0602 122.523 93.4824C118.696 92.9011 114.917 90.8793 113.21 87.1771C112.172 84.9291 111.228 82.7466 109.791 80.7947C109.7 80.6734 109.573 80.5468 109.632 80.2565Z" fill="#3871C1"/>
<path d="M179.961 84.6958C175.895 85.128 171.676 85.4352 168.062 87.6384C165.792 89.007 163.967 90.8072 161.867 92.4319C160.41 93.5524 158.792 94.3337 157.02 94.7134C155.64 95.0017 154.205 95.0957 152.815 94.6496C152.772 94.637 152.827 94.4842 152.846 94.4805C158.02 94.2474 162.033 90.9703 166.062 88.1201C170.036 85.3004 174.937 83.889 179.772 84.4424C179.957 84.4486 180.064 84.4949 179.961 84.6958Z" fill="#3871C1"/>
<path d="M110.934 88.2557C109.255 86.9259 107.683 85.3467 107.035 83.2133C106.35 80.8816 105.873 78.4516 103.961 76.688C103.911 76.6358 103.96 76.5658 103.989 76.4991C107.855 78.8938 109.179 83.4215 111.295 87.2348C111.589 87.7341 112.031 88.1456 112.309 88.6685C112.37 88.7805 112.292 88.917 112.166 88.8987C112.083 88.8931 111.993 88.8479 111.933 88.8074C111.562 88.6935 111.249 88.4762 110.934 88.2557Z" fill="#2F943D"/>
<path d="M105.426 75.2712C105.398 75.2227 105.357 75.1074 105.416 75.0968C106.69 75.1341 107.97 75.5383 109.113 74.8424C111.383 73.4737 113.945 71.1115 116.755 72.407C116.508 72.738 116.045 72.5549 115.753 72.7505C113.102 74.6171 109.883 77.6494 106.507 75.7852C106.176 75.633 105.848 75.4722 105.426 75.2712Z" fill="#3871C1"/>
<path d="M105.483 82.498C104.22 81.8108 103.107 80.8634 102.164 79.7478C101.221 78.6327 100.449 77.3498 99.868 75.9917C99.4727 75.04 99.4785 73.9345 100.037 73.0569C101.147 73.5428 101.712 74.5254 102.128 75.632C102.822 77.9773 103.752 80.3056 105.349 82.2087C105.387 82.2658 105.408 82.3349 105.483 82.498Z" fill="#2F943D"/>
<path d="M102.924 72.6915C102.374 72.3081 101.833 71.9141 101.558 71.289C101.5 71.197 101.625 71.0926 101.734 71.1345C104.174 71.9646 106.929 72.3905 109.096 70.4468C109.414 70.1652 109.935 69.7646 110.328 69.8987C109.427 71.7172 107.641 72.9377 105.731 73.4941C104.691 73.7927 103.779 73.2413 102.924 72.6915Z" fill="#2F943D"/>
<path d="M143.824 82.2844C134.596 83.0013 125.111 84.4766 116.014 82.0329C111.322 80.7563 106.914 78.4177 103.264 75.2011C102.348 74.3908 101.464 73.5182 100.654 72.6023C99.2988 71.0799 98.0974 69.4102 97.0986 67.636C98.4769 69.6501 100.045 71.5104 101.815 73.1727C102.244 73.5806 102.717 73.9969 103.166 74.3819C103.305 74.4961 103.57 74.7154 103.71 74.831C103.845 74.938 104.123 75.1572 104.262 75.2681C107.438 77.7254 111.059 79.6096 114.891 80.8088C124.257 83.7374 134.184 82.2585 143.824 82.2844Z" fill="#6C505C"/>
<path d="M12.9673 16.5414C12.1635 15.2088 11.1981 13.4521 12.1475 11.9741C12.9793 10.6855 14.5071 10.0681 15.9865 9.88499C17.8129 9.65407 19.6865 9.41869 21.4868 9.87159C22.2424 10.0591 22.934 10.4163 23.5237 10.9082C24.1137 11.4 24.6013 12.027 24.9485 12.7536C25.4531 13.8131 25.7162 15.0666 25.1089 16.0987C25.0714 16.0598 24.9983 16.0438 24.9817 15.9787C24.8525 14.9543 24.7262 13.9152 24.0392 13.061C23.2486 12.0851 22.1281 11.6921 20.9933 11.7534C19.8582 11.8146 18.7086 12.33 17.8594 13.1714C16.3162 14.7036 16.4436 17.074 17.7428 18.7044C18.5131 19.6683 19.5034 20.4657 20.7307 20.5971C21.8232 20.7132 22.7158 19.9898 23.5991 19.4476C23.5041 20.7297 21.9444 21.353 20.8322 21.538C19.6331 21.7351 18.4842 21.4729 17.4432 20.9505C16.4022 20.4274 15.4692 19.6428 14.7019 18.7963C14.0936 18.1597 13.5266 17.4185 12.9673 16.5414Z" fill="#F9DD0B"/>
<path d="M7.32883 15.5102C9.40403 18.4562 10.9603 22.0716 14.5749 23.5472C15.3342 23.8578 16.1133 24.0427 16.8977 24.0794C17.6822 24.1161 18.4721 24.0047 19.253 23.7237C22.0549 22.7398 24.7646 21.4762 27.7261 20.9569C28.4413 20.8364 29.1698 20.7964 29.8734 21.0104C26.6146 21.772 23.5534 23.1728 20.4503 24.4145C18.9715 25.0176 17.4397 25.2309 15.9731 25.0479C14.5064 24.8642 13.1052 24.2843 11.8877 23.2997C10.0112 21.7887 8.71399 19.8679 7.5166 17.7699C5.69766 14.5868 4.49736 11.0945 1.55745 8.77093C1.47929 8.70779 1.38644 8.64142 1.35023 8.52672C1.33373 8.46164 1.39991 8.36886 1.45519 8.39592C4.07293 9.45588 5.13482 12.1061 6.53061 14.2795C6.78938 14.6944 7.06265 15.1004 7.32883 15.5102Z" fill="#2F943D"/>
<path d="M28.112 7.49571C28.5827 8.15596 29.0079 8.87673 29.0295 9.69281C29.0481 10.5583 29.059 11.4224 29.0949 12.2788C29.1481 14.8488 29.6238 17.448 30.9482 19.666C29.6749 19.4656 28.7723 18.3351 28.2286 17.1753C27.2174 14.9949 27.4555 12.7039 27.2911 10.4324C27.2021 9.36443 26.9091 8.33546 26.449 7.38927C25.989 6.44239 25.3614 5.5783 24.604 4.83805C24.0822 4.31973 23.5005 3.85777 22.8729 3.45843C21.7651 2.67643 20.5685 1.98697 19.4358 1.28151C18.9882 1.01574 18.5713 0.679709 18.3063 0.208704C18.2637 0.122434 18.3298 0.0299018 18.4124 0.0020728C18.4449 -0.00627589 18.4888 0.0034656 18.5148 0.0243373C18.8994 0.368025 19.3062 0.610132 19.7455 0.843199C20.7225 1.38517 21.7196 1.87009 22.6763 2.40719C23.633 2.9436 24.5496 3.53287 25.3654 4.28356C26.4111 5.20122 27.3323 6.26776 28.112 7.49571Z" fill="#3871C1"/>
<path d="M4.8584 8.96028C4.8654 8.90664 4.91563 8.88637 4.96266 8.88179C5.61876 8.96289 6.26844 9.07408 6.92709 9.00279C10.402 8.65613 13.7626 8.13157 17.1721 7.31137C19.3852 6.78222 21.7373 7.23287 23.6194 8.57634C24.8578 9.46587 25.5837 10.6687 26.0464 12.0004C26.5089 13.3327 26.7075 14.7946 26.8919 16.2002C26.9526 16.766 27.1105 17.3069 27.351 17.8203C27.1496 17.7608 26.9723 17.6601 26.8906 17.4737C26.2508 16.1204 26.0245 14.7671 25.5963 13.3556C25.2894 12.3392 24.7944 11.3588 24.1174 10.5641C23.4404 9.77002 22.581 9.16173 21.5451 8.89095C18.5796 8.09233 15.5444 9.16239 12.5106 9.45214C10.1679 9.66209 7.84116 9.7988 5.5646 9.28012C5.31697 9.22779 5.05933 9.17743 4.8584 8.96028Z" fill="#F58614"/>
<path d="M23.1437 16.2237C22.8465 16.2947 22.5325 16.4713 22.4979 16.7702C22.3432 17.7632 22.297 19.1019 21.1122 19.4095C20.1899 19.6367 19.3032 19.1371 18.7254 18.4146C18.1607 17.702 17.9338 16.8449 18.0077 16.0033C18.0817 15.1616 18.4566 14.336 19.0956 13.6863C19.7152 13.0559 20.5416 12.7416 21.3551 12.7465C22.1687 12.7508 22.9693 13.0744 23.5381 13.7191C24.4064 14.5731 24.2519 15.6124 23.1437 16.2237Z" fill="#3871C1"/>
<path d="M30.753 27.4095C28.3333 29.1446 25.0061 31.3455 22.0605 29.5407C24.5088 29.6905 26.2438 27.9093 28.0078 26.3475C29.8039 24.7786 31.935 24.0627 34.2753 24.0056C35.6432 23.9815 36.9128 24.0589 38.1938 24.5059C38.7741 24.7237 39.5305 24.766 39.8644 25.3442C37.952 24.9124 35.8173 24.4483 33.9826 25.4336C32.8624 26.043 31.8237 26.7573 30.753 27.4095Z" fill="#2F943D"/>
<path d="M26.9477 23.9886C26.3796 24.4012 25.888 24.8301 25.3286 25.29C23.4301 26.8371 21.9974 29.1287 19.4911 29.4568C18.3831 29.552 17.3596 29.3294 16.3222 28.8898C15.7189 28.6356 14.8849 28.3166 14.7197 27.6679C15.6415 27.6543 16.5162 27.9976 17.445 28.0923C20.4132 28.3859 22.193 25.6952 24.3034 23.9492C27.1722 21.6023 31.0622 21.5302 34.317 22.7588C32.891 22.9082 31.4784 22.7848 30.0264 22.9127C29.7913 22.9381 29.5561 22.9634 29.3338 23.0153C28.5678 23.1489 27.8615 23.4092 26.9477 23.9886Z" fill="#3871C1"/>
<path d="M9.08894 12.0133C10.436 14.7881 11.3974 17.8303 13.8655 19.9293C15.0288 20.917 16.4447 21.7113 17.9277 22.0575C19.3445 22.4076 20.8226 22.3006 22.1635 21.6273C23.4574 20.9597 24.6546 19.7498 26.1833 20.1132C26.0442 20.1902 25.8737 20.1991 25.7345 20.2761C23.1348 21.808 20.3773 23.6429 17.2859 23.0014C15.6922 22.6545 14.2079 21.9105 12.9658 20.8534C11.7238 19.7963 10.724 18.4266 10.0994 16.8285C9.05209 14.181 8.36977 11.4748 6.07191 9.71954C5.99369 9.65653 6.28104 9.67308 6.38733 9.75836C7.42218 10.3674 8.44983 10.986 9.08894 12.0133Z" fill="#F58614"/>
<path d="M26.5326 12.4336C26.1057 11.2271 25.5708 10.026 24.8526 8.96195C24.1348 7.89719 23.2339 6.97011 22.0755 6.31227C18.3721 4.18954 14.1557 5.33975 10.2711 6.65408C9.19669 7.01759 8.16679 7.17628 7.00783 7.1539C5.85207 7.1166 4.78982 6.93146 3.7505 6.4296C3.65447 6.37806 3.66532 6.25801 3.72826 6.18002C3.74921 6.15357 3.79634 6.14883 3.82557 6.15493C5.87377 6.87653 7.9946 6.77141 10.0456 5.93113C14.044 4.30484 18.2801 2.85283 22.14 5.1017C23.3707 5.81312 24.3112 6.84126 25.0294 8.02198C25.7476 9.20271 26.2439 10.5374 26.5867 11.8626C26.6285 12.0185 26.7086 12.18 26.5326 12.4336Z" fill="#2F943D"/>
<path d="M32.3786 19.0917C30.8588 16.8298 31.0149 13.9997 30.6445 11.4085C30.4732 10.2603 29.9924 9.26767 29.4254 8.30236C28.8583 7.33639 28.2049 6.39837 27.6883 5.35922C27.6405 5.22616 27.593 5.09377 27.607 4.95872C28.7783 5.73443 29.8101 6.72834 30.611 7.87659C31.4119 9.02551 31.9823 10.3288 32.2301 11.7238C32.8051 15.0635 32.7121 19.0092 35.5128 21.4102C35.3458 21.4048 35.2059 21.3436 35.0507 21.3097C33.8918 20.8413 32.9201 20.1335 32.3786 19.0917Z" fill="#2F943D"/>
<path d="M43.8942 27.9737C41.9959 27.323 39.9522 26.8633 37.9398 27.6658C34.855 28.8937 32.3041 30.8345 29.0576 31.0469C29.329 30.784 29.7004 30.6966 30.006 30.4874C31.2458 29.716 32.248 28.7703 33.4565 27.9308C36.3044 25.9621 40.0081 25.9718 43.0445 27.3037C43.3867 27.4384 43.6978 27.6342 43.8942 27.9737Z" fill="#3871C1"/>
<path d="M45.3725 27.334C43.8729 26.4269 42.5448 25.2807 41.8313 23.5634C40.5401 20.4191 39.3604 17.6052 37.832 14.7761C37.8938 14.7743 37.9586 14.758 37.9845 14.7792C39.9487 16.6612 41.731 18.5341 42.983 20.8735C43.3312 22.8638 43.8221 24.9001 44.9735 26.6078C45.1217 26.8239 45.2283 27.0683 45.3725 27.334Z" fill="#2F943D"/>
<path d="M32.7876 30.8785C33.259 30.781 33.7161 30.6511 34.1483 30.4231C35.9993 29.4479 37.6981 28.2553 39.8397 28.1243C41.9994 27.9817 44.0315 28.7761 45.722 30.0165C44.2254 29.645 42.7095 28.871 41.1004 29.4396C38.3844 30.3802 35.7438 31.8883 32.8667 31.1693C32.6278 31.0703 32.6126 30.998 32.7876 30.8785Z" fill="#2F943D"/>
<path d="M40.9275 24.2578C38.3038 23.165 35.7865 21.0096 35.5118 17.9787C35.2775 15.3249 34.8942 12.6535 33.4023 10.4299C34.8211 11.2284 35.6284 12.7975 36.2243 14.3515C36.7728 15.7722 36.9495 17.143 37.2983 18.5668C37.8351 20.6742 38.9314 22.6735 40.7428 23.9142C40.8302 23.983 40.9601 24.0348 40.9275 24.2578Z" fill="#3871C1"/>
<path d="M47.1226 29.291C45.266 26.7622 45.1202 23.5603 44.4837 20.574C44.2302 19.416 43.2985 18.6317 42.6191 17.6721C42.3756 17.3126 42.1647 16.9454 42.0215 16.5467C44.4854 18.0322 46.5074 20.4932 46.6294 23.5217C46.7041 25.36 46.7333 27.1271 47.1665 28.8763C47.1944 28.985 47.2459 29.108 47.1226 29.291Z" fill="#3871C1"/>
<path d="M0.0715156 6.27962C2.98626 7.13618 5.97211 8.12293 9.07964 7.63517C11.0276 7.33908 12.7919 6.62065 14.6966 6.10051C16.0145 5.74427 17.3483 5.66694 18.6737 5.9095C19.7036 6.10249 20.7163 6.44551 21.5439 7.14609C21.5699 7.16724 21.4892 7.25712 21.4745 7.25382C17.8543 5.94519 14.1668 7.05752 10.5901 7.87178C7.06039 8.68141 3.29312 8.25974 0.128752 6.50697C0.00324246 6.45013 -0.0569018 6.38801 0.0715156 6.27962Z" fill="#3871C1"/>
<path d="M48.498 23.4251C49.2735 24.8151 49.9053 26.3461 49.7459 27.9962C49.5543 29.7918 49.1921 31.5969 50.005 33.3506C50.0245 33.4008 49.971 33.4353 49.932 33.4727C47.9559 30.7305 48.332 27.2441 47.9604 24.024C47.9002 23.5973 47.7136 23.1895 47.6707 22.7516C47.6606 22.6574 47.7531 22.5855 47.8345 22.6335C47.8896 22.6608 47.9381 22.7176 47.9687 22.7627C48.191 22.9466 48.3448 23.1844 48.498 23.4251Z" fill="#2F943D"/>
<path d="M48.6013 33.9111C48.6073 33.9531 48.6028 34.0441 48.5588 34.0345C47.694 33.6468 46.9298 33.0059 45.9467 33.1595C43.9988 33.4557 41.5682 34.3514 40.0059 32.6637C40.2697 32.5065 40.5356 32.7633 40.7918 32.7122C43.1431 32.182 46.2151 31.013 48.0049 33.2515C48.1893 33.4502 48.3683 33.6534 48.6013 33.9111Z" fill="#3871C1"/>
<path d="M50.6084 28.9273C51.281 29.758 51.7769 30.725 52.1076 31.7588C52.4387 32.7926 52.6056 33.8928 52.619 34.9908C52.6206 35.7567 52.3029 36.5144 51.6702 36.959C51.0458 36.3102 50.9364 35.4743 50.9644 34.5965C51.1535 32.7885 51.1758 30.925 50.6188 29.1647C50.6084 29.1144 50.6136 29.061 50.6084 28.9273Z" fill="#2F943D"/>
<path d="M49.5816 36.3911C49.8504 36.8102 50.1105 37.2346 50.1225 37.7427C50.136 37.8217 50.0204 37.8584 49.9573 37.7981C48.5166 36.5357 46.7445 35.4605 44.7041 36.1807C44.4064 36.2842 43.9343 36.4114 43.7031 36.2076C44.838 35.2144 46.4111 34.883 47.8808 35.0429C48.6799 35.133 49.1505 35.7703 49.5816 36.3911Z" fill="#2F943D"/>
<path d="M24.2119 18.1948C30.7538 20.3214 37.6886 22 43.2442 26.2608C46.105 28.4697 48.4693 31.327 50.0633 34.5726C50.4628 35.3892 50.8226 36.2396 51.1193 37.0987C51.6175 38.5291 51.9697 40.0167 52.1519 41.5195C51.7763 39.7446 51.2267 38.0215 50.4838 36.3774C50.3045 35.975 50.0977 35.555 49.8986 35.1631C49.8355 35.0451 49.7157 34.8197 49.6521 34.7005C49.5902 34.5884 49.4611 34.3589 49.3968 34.2432C47.9127 31.6535 45.9598 29.3318 43.6681 27.4201C38.065 22.7499 30.8265 20.9487 24.2119 18.1948Z" fill="#3871C1"/>
<path d="M94.3493 38.9085C95.426 38.6351 96.8243 38.862 97.9441 38.861C97.9441 38.963 97.9449 39.0646 97.9449 39.1666C99.3931 39.1569 100.596 40.4841 101 41.9364C101.405 43.3891 101.193 44.9408 100.977 46.4363C100.955 46.5947 100.926 46.7648 100.818 46.8775C100.808 46.6785 100.798 46.4798 100.788 46.2808C99.7569 44.962 98.38 43.9409 96.8481 43.3575C96.5818 43.2562 96.261 43.1755 96.0354 43.3536C96.3117 43.136 95.667 41.3053 95.558 41.0209C95.2549 40.2316 94.7322 39.6243 94.3493 38.9085ZM101.531 38.9656C103.067 38.2767 106.062 38.8414 107.794 38.8354C107.926 38.8351 108.071 38.8394 108.169 38.9311C108.263 39.0181 108.287 39.1589 108.305 39.2889C108.772 42.6311 108.952 46.1586 107.703 49.2742C107.415 49.9934 107.04 50.6983 106.465 51.1953C105.89 51.6926 105.082 51.9497 104.376 51.6946C103.675 51.4405 103.197 50.7293 103.005 49.9804C102.813 49.2317 102.863 48.4411 102.928 47.669C103.057 46.1343 103.238 44.5913 103.095 43.0579C102.95 41.4893 102.398 40.2253 101.531 38.9656ZM95.8996 45.3819H96.5135C96.5887 45.5769 96.5097 45.4384 96.7814 45.5301L96.9341 45.5832C97.1344 45.6474 97.1881 45.654 97.3554 45.7849L97.8443 46.1835C98.2987 46.6669 98.4821 46.9475 98.9694 47.199L99.4813 47.4661C99.4913 47.4717 99.5044 47.4787 99.5151 47.4844C99.5251 47.49 99.5389 47.497 99.5489 47.5024C99.8935 47.6907 100.232 47.693 100.553 47.7365C100.922 47.787 100.486 47.8302 100.914 47.8398L101.016 50.1911C100.868 50.1944 100.95 50.1877 100.846 50.226L100.415 50.4173C100.402 50.4217 100.388 50.4256 100.375 50.4303L99.9595 50.5827C99.7807 50.6392 99.6939 50.5967 99.5174 50.6558C99.4253 50.687 99.4621 50.7293 99.126 50.7286L97.6394 50.7253C97.6862 50.5877 97.7039 50.5488 97.8482 50.516L98.7154 50.513C98.8136 50.5 98.819 50.5379 98.9188 50.405C98.9602 50.3509 98.938 50.3897 98.9694 50.2977H98.2534V49.7636L97.5366 49.6569C97.4859 49.5084 97.4237 49.4908 97.3554 49.4187C97.2219 49.2776 97.2326 49.2414 97.2296 49.1224H97.0254C97.0185 48.7958 97.0247 48.9955 96.9494 48.8806L96.8581 48.7627C96.852 48.753 96.8451 48.7387 96.8389 48.7291L96.8029 48.6593C96.7975 48.649 96.7906 48.6348 96.7844 48.6252L96.6164 48.4268C96.5972 48.4069 96.5726 48.3816 96.5389 48.3471C96.2418 48.0408 96.2603 48.08 96.0845 47.6997C96.0799 47.6883 96.0722 47.675 96.0676 47.6637C95.8428 47.1472 95.9287 47.1469 95.9003 46.7698C95.888 46.5931 95.6847 46.1101 95.832 45.6324C95.8666 45.5198 95.8926 45.7108 95.8996 45.3819ZM100.607 47.0918C100.755 47.0884 100.674 47.0951 100.778 47.0568C100.864 47.025 100.733 47.0532 100.914 46.9851V47.3056H100.607V47.0918ZM100.607 47.5192H100.914V47.6262H100.607V47.5192ZM73.382 48.7483C73.3823 48.6029 73.5654 48.748 73.4278 48.7513C73.3763 48.7523 73.382 48.87 73.382 48.7483ZM73.5866 48.8553C73.5866 48.7102 73.7697 48.8553 73.6325 48.858C73.581 48.8593 73.5866 48.9766 73.5866 48.8553ZM73.7916 48.962C73.7913 48.8171 73.9747 48.962 73.8374 48.9646C73.7856 48.966 73.7913 49.0836 73.7916 48.962ZM73.9962 49.0154L74.2012 49.0151L74.2009 49.1224L73.9962 49.1221V49.0154ZM74.3032 49.1221L74.6101 49.1224V49.2291H74.3032V49.1221ZM96.8205 50.7788C96.8205 50.6336 97.0032 50.7788 96.8666 50.7814C96.8144 50.7828 96.8205 50.9003 96.8205 50.7788ZM97.1275 50.8322L97.4345 50.8319V50.9389H97.1275V50.8322ZM97.6394 50.9389H97.9464V51.0458H97.6394V50.9389ZM121.589 59.0071C121.589 58.862 121.773 59.0068 121.634 59.0098C121.583 59.0111 121.589 59.1284 121.589 59.0071ZM121.487 59.2207C121.487 59.0756 121.67 59.2207 121.532 59.2237C121.481 59.2247 121.486 59.3424 121.487 59.2207ZM121.384 59.4344C121.384 59.2892 121.568 59.4344 121.43 59.4374C121.379 59.4384 121.384 59.5559 121.384 59.4344ZM74.2009 60.1293L73.9929 60.393C73.9474 60.4256 73.981 60.4167 73.8942 60.4495C73.9404 60.3147 74.0713 60.1781 74.2009 60.1293ZM73.4843 60.717C73.4846 60.5715 73.6677 60.7166 73.5305 60.7196C73.4787 60.7209 73.4843 60.8382 73.4843 60.717ZM73.0754 61.0907C73.0415 61.1874 73.0562 61.1412 73.0199 61.1933C73.0027 61.2182 72.9459 61.2834 72.9236 61.3069L72.6658 61.572C72.5705 61.6733 72.5007 61.7853 72.3585 61.8388C72.4113 61.687 72.5775 61.5577 72.6914 61.4385C72.8057 61.3192 72.9179 61.1501 73.0754 61.0907ZM118.723 60.9841V61.0907C119.316 61.0907 119.032 61.0857 119.308 61.0066C119.415 60.9761 119.428 60.9841 119.542 60.9841V60.8771C119.487 60.8771 119.386 60.8704 119.336 60.8751C118.953 60.9113 119.353 60.9837 118.723 60.9841ZM119.541 60.7705L119.542 60.8771H119.849V60.7705H119.541ZM119.848 60.6635L119.849 60.7705H120.053V60.6635H119.848ZM120.053 60.5565V60.6635H120.258V60.5565H120.053ZM120.258 60.4498V60.5565H120.463V60.4495L120.258 60.4498ZM120.514 60.3429C120.375 60.3429 120.514 60.5339 120.517 60.3907C120.518 60.3366 120.631 60.3429 120.514 60.3429ZM120.617 60.2359C120.478 60.2359 120.617 60.4273 120.62 60.2837C120.621 60.2299 120.733 60.2359 120.617 60.2359ZM88.8879 45.8164C90.0169 47.6435 89.7352 50.2064 88.5702 52.0371C87.3422 53.9658 85.3263 55.1982 83.2601 56.0407C81.1935 56.8828 79.0147 57.4017 76.9624 58.2809C74.9104 59.1606 72.9279 60.4735 71.7978 62.4663C71.9858 62.3138 72.1739 62.161 72.3615 62.0082C70.1199 64.4936 69.9903 68.7457 72.0765 71.375C69.8465 68.1959 70.6776 63.1542 73.7969 60.9365C73.282 61.6271 72.7674 62.3178 72.2525 63.0084C72.5758 62.6802 72.8987 62.352 73.2219 62.0238C73.7538 62.0846 74.259 61.8036 74.7367 61.5521C77.9583 59.8569 81.5855 59.1709 84.8702 57.6136C88.155 56.0563 91.2778 53.2193 91.6493 49.4725C91.9217 46.717 90.4996 43.8585 88.1842 42.5065C85.8678 41.1547 82.7907 41.387 80.6853 43.0729C80.585 41.6591 80.5322 40.2416 80.5262 38.8241C83.3292 38.8749 86.1326 38.8843 88.9355 38.8523C89.0084 39.1141 89.0821 39.3755 89.155 39.637C90.8757 39.3686 92.8941 39.9685 93.6447 41.6076C94.4068 43.2738 93.5979 45.2514 93.8036 47.0858C94.0852 49.6025 96.5956 51.5956 98.994 51.2066C98.7346 50.9884 98.3831 50.8943 98.0546 50.9551C99.0646 50.9834 100.08 50.799 101.021 50.416C101.279 51.7431 102.17 52.9187 103.347 53.4855C104.524 54.0522 105.96 53.9957 107.093 53.338C108.468 52.5397 109.293 50.9993 109.828 49.455C110.984 46.1121 111.086 42.3809 110.112 38.9753C111.001 38.9696 111.89 38.9639 112.779 38.9583C112.501 46.3366 112.506 53.7269 112.795 61.1049C112.842 59.3161 112.891 57.5269 112.939 55.738C113.177 56.1105 113.27 56.5805 113.194 57.0213C113.261 56.806 113.327 56.5907 113.393 56.3755C113.843 55.8676 114.185 55.2563 114.386 54.5976C114.68 53.6392 114.674 52.6128 114.667 51.6066C114.633 47.3904 114.6 43.1745 114.567 38.9586C116.469 38.9663 118.37 38.9739 120.272 38.9819C119.061 40.5266 118.577 42.5938 118.641 44.589C118.706 46.5841 119.28 48.5255 119.994 50.3771C120.616 51.9892 121.353 53.5738 121.654 55.2833C121.956 56.9924 121.756 58.8982 120.677 60.2213C122.259 59.3334 122.851 57.198 122.618 55.3391C122.385 53.4801 121.511 51.7886 120.813 50.0609C119.83 47.6255 119.175 44.9089 119.789 42.3443C120.252 40.4083 121.421 38.4574 120.815 36.5645C119.457 36.4393 118.023 36.327 116.792 36.939C116.13 37.2681 115.333 37.7917 114.751 37.3259C114.538 37.1555 114.418 36.8818 114.203 36.7144C113.938 36.5081 113.582 36.4997 113.252 36.4997C111.159 36.4997 109.066 36.4997 106.973 36.5001C106.624 36.5001 106.258 36.5041 105.951 36.6778C105.654 36.8456 105.451 37.1509 105.171 37.3479C104.478 37.8378 103.374 37.4133 103.151 36.5702C101.982 36.3898 100.653 36.2533 99.7461 37.0459C99.578 37.1937 99.4276 37.3717 99.2273 37.4694C98.3271 37.9103 97.5957 36.5051 96.6348 36.237C95.766 35.9945 94.964 36.7257 94.1681 37.1625C93.373 37.5994 92.0323 37.4469 92.0123 36.5084C91.0629 36.5094 90.1144 36.5101 89.165 36.5111C89.033 37.2203 88.1926 37.5532 87.5119 37.4246C86.8311 37.2957 86.2478 36.8565 85.6213 36.5496C84.9948 36.2426 84.2118 36.0799 83.6401 36.4868C83.3116 37.671 81.3909 37.7907 80.9298 36.6555C80.7474 36.2071 76.4481 36.5679 75.899 36.5944C74.6254 36.6559 72.217 36.4413 71.1537 37.2668C69.5794 38.4886 72.5641 38.3952 73.3375 38.472C75.1426 38.6514 76.9564 38.7355 78.7695 38.7235C78.7167 39.4088 78.6635 40.0941 78.6107 40.7794C77.0298 39.7761 74.8975 39.7831 73.3498 40.8409C71.8018 41.8986 70.9401 43.9711 71.3052 45.8646C71.6703 47.7581 73.2661 49.3354 75.1031 49.5622C74.9583 49.637 74.8523 49.3543 74.9715 49.2404C75.0905 49.1261 75.2745 49.1493 75.4356 49.1659C76.2372 49.248 77.0673 48.958 77.6607 48.3889C76.5854 49.0906 75.1865 49.2211 74.0092 48.7291C74.4115 48.6915 74.8134 48.654 75.2154 48.6165C75.036 48.5514 73.9095 47.6402 73.6836 47.1778C73.2707 46.3326 73.1615 45.2696 73.3053 44.3328C73.474 43.2317 74.4467 42.3865 75.4974 42.1869C76.5481 41.9872 77.6394 42.3417 78.5493 42.9264C78.9276 44.7687 78.6808 46.7446 77.863 48.4242C78.0723 48.2012 78.2812 47.9783 78.4905 47.7555C78.4606 48.6002 78.4779 49.447 78.5427 50.2897C78.5965 49.9718 78.6506 49.654 78.7044 49.336C78.7044 49.8014 78.7044 50.2665 78.7047 50.7319C77.2295 51.1126 76.1438 53.1037 77.0653 54.3658C77.7072 55.2451 78.927 55.3563 79.982 55.2593C81.4078 55.1282 82.8129 54.7551 84.1258 54.1595C83.397 54.3143 82.6532 54.3923 81.9094 54.392C82.3087 54.4701 82.1536 53.7263 81.8018 53.5143C80.8826 52.9606 79.7369 52.834 78.727 53.1745C78.921 52.6746 79.3685 52.2909 79.8761 52.1895C80.3477 51.5375 79.6622 50.4233 78.8978 50.6003C78.9071 50.2459 78.9163 49.8914 78.9256 49.537C79.1459 49.733 79.2711 50.0403 79.2536 50.3419C80.5554 48.9254 81.0796 46.7785 80.5863 44.8843C81.8529 44.0731 83.3172 43.5419 84.8028 43.5858C86.2884 43.6299 87.7889 44.2983 88.6938 45.5291C88.7628 45.6227 88.8273 45.7184 88.8879 45.8164ZM126.4 37.3139C126.4 37.1688 126.583 37.3139 126.445 37.3173C126.393 37.3179 126.4 37.4356 126.4 37.3139ZM129.981 38.7567V38.8633C124.288 38.8636 124.288 38.7567 129.981 38.7567ZM130.289 38.7567H131.312V38.8633H130.288L130.289 38.7567ZM125.581 38.65C125.512 38.3793 125.143 38.6497 125.581 38.65ZM125.222 37.0469L125.274 37.1146L125.07 37.1588L125.069 37.0469H125.222ZM123.124 38.454L123.227 39.0773H123.637H125.005L131.724 38.8616C131.643 38.854 131.502 38.8636 131.415 38.8633V38.7567C132.417 38.7567 131.777 38.7985 132.185 38.861C132.39 38.8922 132.869 38.8636 133.103 38.8633C133.394 38.8633 133.684 38.8613 133.974 38.8643C134.117 38.8656 134.281 38.8826 134.417 38.8454C134.43 38.8417 134.443 38.8368 134.455 38.8324C134.629 38.7703 134.656 38.7371 134.69 38.6497C134.358 38.65 133.265 38.6863 132.984 38.6108L132.845 38.5989C132.836 38.6009 132.823 38.6082 132.814 38.6105C132.396 38.7228 126.495 38.6497 125.785 38.65L125.786 38.5427C126.383 38.5427 126.98 38.5427 127.576 38.5427L128.188 38.5404C128.473 38.4979 128.245 38.5205 128.381 38.4753C128.977 38.2767 129.024 38.3813 129.574 38.3315C130.009 38.2916 129.394 38.2222 130.852 38.2225C131.449 38.2225 132.046 38.2225 132.643 38.2225L132.511 38.0391C132.377 37.9678 130.382 38.0086 130.186 38.0086L130.222 37.9391C130.298 37.6997 130.163 37.9458 130.288 37.5814C130.168 37.5355 130.13 37.499 130.084 37.3674H129.163C129.107 37.2236 129.193 37.3156 129.053 37.2691L128.342 37.2588C127.978 37.2921 128.136 37.5113 127.192 37.2353C127.179 37.2313 127.166 37.2256 127.153 37.2216C127.141 37.2173 127.129 37.2103 127.117 37.206C126.813 37.0994 126.321 37.1538 125.925 37.1538C125.926 37.0097 125.871 37.0758 126.036 37.0436C126.057 37.0399 126.258 37.0469 126.298 37.0469V36.9399H125.109C124.859 36.9157 125.024 36.9931 124.967 36.8333H124.148V36.9542L123.977 36.9399C123.979 36.7074 123.961 36.9705 124.045 36.7263H123.329L123.28 36.942C123.276 36.9548 123.27 36.9678 123.265 36.9805C123.261 36.9934 123.256 37.0067 123.251 37.0196C123.235 37.0688 123.231 37.0928 123.215 37.1413L123.187 37.2196C123.182 37.2356 123.163 37.2791 123.158 37.2957C123.1 37.485 123.124 37.7591 123.125 37.9833C122.962 38.0953 123.022 38.0451 123.022 38.3292C123.142 38.376 123.103 38.3052 123.124 38.454ZM31.8279 39.2912C31.7842 39.4171 31.7492 39.4573 31.6234 39.5048C31.663 39.3898 31.6222 39.4513 31.7008 39.3719C31.7784 39.2932 31.7179 39.3327 31.8279 39.2912ZM31.6234 39.6114C31.5796 39.7376 31.5448 39.7775 31.4186 39.8253C31.4584 39.7104 31.4178 39.7722 31.4962 39.6925C31.5737 39.6141 31.5132 39.6533 31.6234 39.6114ZM31.4186 39.9323C31.3749 40.0582 31.3399 40.0984 31.214 40.1459C31.2535 40.0313 31.2128 40.0927 31.2915 40.0131C31.3688 39.9346 31.3086 39.9738 31.4186 39.9323ZM31.1115 40.3064C31.1116 40.1612 31.2945 40.306 31.1574 40.309C31.1055 40.3104 31.1116 40.4276 31.1115 40.3064ZM31.1116 40.4665C31.0678 40.5927 31.033 40.6326 30.907 40.6801C30.9467 40.5655 30.906 40.627 30.9845 40.5475C31.0618 40.4688 31.0014 40.508 31.1116 40.4665ZM30.8047 40.8405C30.8045 40.6953 30.9877 40.8405 30.8505 40.8432C30.7989 40.8445 30.8047 40.9618 30.8047 40.8405ZM30.7023 41.0541C30.7023 40.9089 30.8852 41.0541 30.7481 41.0571C30.6964 41.0581 30.7021 41.1757 30.7023 41.0541ZM30.5999 41.2145H30.7021C30.6921 41.6829 30.6098 41.1737 30.5999 41.6421L30.4974 41.6418C30.5074 41.1737 30.5898 41.6829 30.5999 41.2145ZM30.3951 41.8022C30.3953 41.6571 30.5782 41.8022 30.441 41.8052C30.3894 41.8062 30.3953 41.9234 30.3951 41.8022ZM30.2928 42.1228C30.2927 42.0324 30.4429 42.0477 30.3577 42.1228C30.3157 42.1597 30.2926 42.2105 30.2928 42.1228ZM54.9577 44.8302C54.9211 44.8415 54.8839 44.8451 54.8467 44.8352C54.7742 44.8159 54.7231 44.7497 54.6789 44.6867C54.265 44.091 54.0029 43.3602 54.0461 42.6258C54.1238 41.3082 55.9801 39.6131 56.8528 41.3282C57.173 41.9574 57.0169 42.7593 56.6339 43.3489C56.2505 43.9385 55.6759 44.3581 55.1058 44.7501C55.06 44.7817 55.0098 44.8139 54.9577 44.8302ZM30.1903 42.4433C30.1904 42.353 30.3407 42.3683 30.2551 42.4433C30.2135 42.4802 30.1903 42.5311 30.1903 42.4433ZM49.0227 45.0617H49.2273L49.2276 45.1683H49.023L49.0227 45.0617ZM49.3299 45.1687L49.5349 45.1683V45.2753H49.3299V45.1687ZM49.6369 45.2753H49.8419V45.3819H49.6369V45.2753ZM50.0465 45.4354C50.0465 45.2906 50.2292 45.4357 50.092 45.4384C50.0405 45.4398 50.0465 45.557 50.0465 45.4354ZM50.4557 45.4889H50.6604V45.5959H50.4557V45.4889ZM50.7627 45.5959H51.2746V45.7029H50.7627V45.5959ZM62.8402 52.542L62.9426 52.5416V52.9692H62.8402V52.542ZM44.4171 39.9323C44.4204 40.0901 44.4254 40.0177 44.4527 40.1087L44.7467 40.9239C44.7507 40.9369 44.7553 40.9511 44.7597 40.9637C44.8636 41.2541 45.0085 41.48 45.1988 41.7873L45.6442 42.5513C45.724 42.644 45.6699 42.5636 45.7485 42.6563L45.8672 42.8526C45.8732 42.8629 45.8795 42.8772 45.8858 42.8872L46.5309 43.6027C46.6159 43.7449 46.6246 43.8289 46.7734 43.9369L46.975 44.0472C47.0056 44.0628 46.9677 44.0582 47.078 44.1C47.0747 43.9412 47.0641 43.9117 46.901 43.7502C46.8937 43.7426 46.882 43.7322 46.8747 43.7246C46.8667 43.717 46.8555 43.7064 46.8481 43.6991L46.0545 42.8177C45.8821 42.5011 45.9931 42.7845 45.7104 42.3221L45.525 42.0347C45.5191 42.0248 45.5117 42.0109 45.5061 42.0012C45.5001 41.9916 45.4918 41.9782 45.4855 41.969L44.7022 40.3293C44.6311 40.1031 44.5742 39.9914 44.4171 39.9323ZM47.1806 44.1532C47.1806 44.008 46.9976 44.1532 47.1345 44.1561C47.1863 44.1572 47.1806 44.2748 47.1806 44.1532ZM31.5887 40.1426C32.0031 39.4214 32.479 38.7371 32.9991 38.0999C32.645 38.4172 32.2911 38.7348 31.9371 39.052C32.7361 38.0608 33.7332 37.3349 34.6018 36.4512C33.2827 37.0067 31.3209 38.8833 30.7565 40.2844C31.1835 39.2247 31.8328 38.2631 32.6454 37.487C32.0577 37.8272 31.562 38.3384 31.229 38.9477C31.03 38.8756 28.0426 43.0689 27.8238 45.5603C27.7388 46.5287 27.8245 47.5083 28.0176 48.4594C29.0046 53.3217 32.8639 57.2541 37.3825 58.8188C41.901 60.3834 46.9441 59.7702 51.3178 57.8083C55.6917 55.8464 59.4535 52.6191 62.715 48.9985C62.6838 50.5176 62.6525 52.0367 62.6213 53.5559C62.619 53.6671 62.6249 53.7967 62.7113 53.8615C62.7977 53.9266 62.9562 53.8107 62.8867 53.7259C62.9359 54.9009 62.9847 56.0755 63.0339 57.2505C63.0744 55.8274 63.115 54.4043 63.1552 52.9815C63.2724 53.3386 63.3893 53.6957 63.5063 54.0529C63.5232 53.8342 63.5401 53.6159 63.5571 53.3974C63.6969 53.3888 63.8371 53.3801 63.977 53.3718C64.8085 51.8541 64.836 50.016 64.842 48.2674C64.8494 46.0719 64.8131 41.5365 64.5298 39.0308C64.3863 37.7618 63.9604 37.3611 63.8919 37.3399C63.6468 37.2641 62.8857 39.5689 62.7994 44.6498C62.7947 44.9242 62.8366 45.2108 62.7259 45.4596C62.6123 45.7148 62.3795 45.8875 62.1476 46.0317C60.4893 47.0635 58.3526 47.207 56.5814 46.4051C57.6905 45.6035 58.6124 44.4478 58.9313 43.0792C59.2499 41.7106 58.8778 40.1306 57.8305 39.2427C56.3874 38.0192 54.0199 38.5229 52.8964 40.0689C51.7726 41.6145 51.8184 43.8704 52.7166 45.5696C51.4593 45.3623 50.2019 45.155 48.9446 44.9481C48.8569 44.9335 48.7426 44.9335 48.7088 45.0192C48.6748 45.1045 48.8652 45.1365 48.825 45.054C48.2656 44.779 47.7065 44.5036 47.1474 44.2285C48.1224 44.9554 49.2074 45.5208 50.3495 45.8975C49.6445 45.844 48.9476 45.6746 48.2922 45.3976C48.6055 45.7012 49.0151 45.8955 49.4402 45.9417C49.401 46.137 52.608 47.4362 54.2507 47.8903C54.5836 47.9823 54.9164 48.0743 55.249 48.1664C56.9565 48.6384 58.7233 49.1141 60.4687 48.8324C57.2242 51.8686 53.6764 54.6624 49.6017 56.2735C45.527 57.8843 40.8464 58.2129 36.8587 56.3801C32.8709 54.5474 29.7927 50.3027 29.9163 45.7554C29.9703 43.7711 30.6061 41.8534 31.5887 40.1426ZM67.1039 63.7631C67.0836 65.5164 67.1192 67.2701 67.2109 69.0208C67.3853 66.7426 67.4278 64.4535 67.3381 62.17C67.6381 62.6772 67.7617 63.2961 67.6809 63.8864C67.7334 63.5353 67.7859 63.1845 67.8387 62.8337C67.9786 62.8151 68.1184 62.7968 68.2579 62.7786C69.1426 59.9991 69.1439 57.01 69.1366 54.0814C69.1233 48.9245 69.1104 43.7661 68.916 38.6135C67.6019 37.876 67.5232 38.0793 67.3059 39.6154C67.1561 40.6754 67.1444 41.7561 67.1365 42.8257C67.0594 49.8031 66.9823 56.7808 66.9053 63.7582C66.985 63.1559 67.065 62.5536 67.1448 61.9511C67.1245 62.555 67.1109 63.1592 67.1039 63.7631ZM57.7215 20.1313C58.3154 18.2955 59.2725 16.5826 60.5248 15.1528C63.1608 12.1435 67.0218 10.3952 70.9248 10.2478C74.6281 10.1082 78.4021 11.406 81.166 13.9831C83.9302 16.5603 85.6067 20.4253 85.436 24.2903C85.2652 28.1551 83.1774 31.9192 79.9501 33.8206C81.5616 32.9812 82.9624 31.7056 83.9783 30.1529C82.9292 31.9999 81.3454 33.5615 79.413 34.2966C77.4803 35.0322 75.1958 34.8627 73.5126 33.6286C71.8294 32.3945 70.8903 30.0492 71.4557 27.9846C70.8786 29.8884 71.5985 32.0882 73.0465 33.3931C74.4946 34.6976 76.5604 35.1355 78.436 34.7425C80.3112 34.3491 81.9914 33.1861 83.2498 31.682C82.4137 32.8889 81.3085 33.8917 80.0474 34.588C80.5936 34.3299 81.1401 34.0718 81.6865 33.8134C82.2954 33.5256 82.9086 33.2353 83.4558 32.834C84.2108 32.2803 84.8174 31.5301 85.3286 30.7283C87.8726 26.7353 88.0368 21.3048 85.9997 17.0062C83.963 12.7084 79.886 9.60547 75.3988 8.58013C67.2172 6.71057 57.6444 11.518 55.4795 20.3332C54.5361 24.1751 55.161 28.4092 57.1684 31.7766C58.2939 33.6645 59.8728 35.3072 61.8264 36.1925C62.534 36.526 63.4315 36.3536 63.9793 35.7795C60.3963 34.1565 57.7892 30.4771 57.175 26.4499C56.8528 24.3363 57.0654 22.1582 57.7215 20.1313ZM120.975 63.9761C120.928 64.111 120.797 64.2478 120.668 64.2967L120.876 64.0329C120.921 64.0004 120.888 64.009 120.975 63.9761ZM118.621 65.0447L118.621 65.1513H118.928V65.0447H118.621ZM119.901 64.8308C119.761 64.8308 119.901 65.0222 119.903 64.879C119.905 64.8249 120.017 64.8308 119.901 64.8308ZM119.951 64.8308L120.155 64.8312L120.156 64.7242H119.951V64.8308ZM120.156 64.5103H120.259C120.169 64.7674 120.245 64.4671 120.156 64.7242L120.463 64.6172C120.374 64.3605 120.449 64.6604 120.36 64.4036C120.494 64.3668 120.418 64.4232 120.463 64.2967H120.565C120.476 64.5534 120.552 64.2535 120.463 64.5106H121.077C121.126 64.3711 121.199 64.3461 121.315 64.2777C121.325 64.2717 121.339 64.2651 121.348 64.2591L121.437 64.1913C121.507 64.1289 121.441 64.1883 121.514 64.1116C121.729 63.8834 122.204 63.2353 122.51 63.228C122.513 63.0775 122.555 63.0097 122.66 62.9044L122.937 62.5516C122.983 62.47 122.938 62.532 122.997 62.4533C123.165 62.2277 123.258 62.2088 123.364 61.9829L123.431 61.8391C123.436 61.8278 123.443 61.8142 123.448 61.8032L124.083 60.2751L124.449 58.8935C124.495 58.6557 124.519 58.7407 124.555 58.47C124.581 58.268 124.54 58.0846 124.608 57.885C124.624 57.8368 124.616 57.9295 124.649 57.7677C124.665 57.6894 124.663 57.5954 124.662 57.5143L124.579 54.9239C124.527 54.7279 124.57 54.5544 124.506 54.3585C124.49 54.31 124.499 54.4036 124.467 54.2388L124.187 52.9287C124.169 52.8759 124.146 52.7978 124.123 52.7274L123.878 51.9683C123.874 51.9557 123.869 51.9417 123.865 51.9288C123.842 51.8554 123.822 51.7859 123.803 51.7261L123.614 51.1226C123.61 51.1096 123.605 51.0953 123.6 51.083L122.793 48.9876C122.789 48.9746 122.784 48.961 122.779 48.9477L122.693 48.6647C122.688 48.652 122.684 48.6377 122.68 48.6252L122.532 48.2976C122.501 48.2006 122.509 48.1859 122.475 48.0909L122.327 47.7634C122.324 47.7501 122.32 47.7355 122.316 47.7225L121.817 46.2662C121.796 46.1831 121.806 46.2038 121.794 46.13C121.736 45.7992 121.617 45.5829 121.587 45.2773C121.551 44.9075 121.485 45.1796 121.486 44.3136C121.487 43.992 121.433 43.5585 121.522 43.2821C121.614 42.9965 121.567 42.7925 121.667 42.4181L121.872 41.5624C121.875 41.5498 121.88 41.5355 121.884 41.5225C121.94 41.3488 121.852 41.6152 121.908 41.4401L121.974 41.2425C121.99 41.1903 121.994 41.168 122.009 41.1182L122.134 40.8223L122.169 40.7518L122.736 39.4709C122.742 39.4599 122.75 39.447 122.755 39.4354C122.903 39.1168 122.637 38.8055 122.611 38.4374C122.595 38.2192 122.644 38.1444 122.577 37.9388C122.544 37.8388 122.477 37.611 122.545 37.405C122.641 37.113 122.613 36.827 122.613 36.5127H121.691C121.685 36.8207 121.665 36.6758 121.57 36.8668L121.38 37.6305C121.372 37.8491 121.385 38.1056 121.384 38.3292C121.382 38.7736 121.293 38.8886 121.487 38.9703C121.548 39.1311 121.375 39.0497 121.686 39.0832C121.743 39.0896 121.925 39.0773 121.998 39.0773L121.362 40.6033C121.357 40.6163 121.353 40.6306 121.349 40.6428L121.283 40.7887C121.278 40.7993 121.271 40.8126 121.265 40.8236L120.773 42.233C120.763 42.3182 120.776 42.4128 120.77 42.4968C120.759 42.6643 120.68 42.743 120.667 42.9227C120.66 43.0204 120.677 43.1489 120.67 43.2463C120.637 43.6917 120.601 43.2247 120.564 43.6701C120.537 43.9884 120.515 44.5498 120.617 44.8477C120.635 44.9015 120.624 44.7976 120.657 44.9654C120.694 45.1474 120.643 45.3431 120.69 45.5201L121.142 47.1309C121.155 47.1724 121.162 47.1951 121.179 47.2522L121.537 48.2681C121.542 48.2799 121.548 48.2936 121.553 48.3046L121.624 48.4437C121.668 48.5407 121.631 48.4431 121.669 48.5577L122.254 50.1917C122.258 50.2034 122.264 50.217 122.27 50.2279L122.614 51.0986C122.618 51.1119 122.621 51.1265 122.624 51.1402L123.456 53.8525C123.459 53.8661 123.464 53.8791 123.469 53.8924C123.472 53.9054 123.479 53.9183 123.482 53.9312L123.509 54.01C123.536 54.1113 123.526 54.1402 123.548 54.2368L123.625 54.4764C123.664 54.6767 123.607 54.7564 123.671 54.9624L123.739 55.4796C123.734 55.9473 123.814 57.3459 123.717 57.702C123.713 57.7155 123.707 57.7282 123.703 57.7412L123.558 58.4982C123.535 58.5849 123.547 58.5577 123.533 58.6331C123.531 58.6494 123.531 58.664 123.528 58.68C123.525 58.6955 123.523 58.7102 123.52 58.7251C123.516 58.74 123.513 58.7537 123.509 58.768C123.505 58.7816 123.5 58.7945 123.496 58.8075C123.492 58.8205 123.486 58.8334 123.482 58.8457C123.392 59.1327 123.422 59.2656 123.291 59.6625L122.475 61.6949C122.449 61.7364 122.37 61.8338 122.343 61.8776L122.138 62.1982C122.132 62.2079 122.125 62.2218 122.119 62.2317L121.879 62.6224C121.682 62.9672 121.096 63.4701 120.822 63.7631C120.82 63.7654 120.748 63.8436 120.746 63.8449L120.566 63.9764C120.556 63.9824 120.542 63.989 120.533 63.995L120.324 64.1512C120.314 64.1575 120.301 64.1648 120.291 64.1711C120.282 64.177 120.268 64.1837 120.258 64.1897C120.249 64.1957 120.235 64.2027 120.225 64.2087C120.216 64.2146 120.202 64.2222 120.193 64.2282C120.142 64.2628 120.165 64.2498 120.105 64.2967C120.093 64.3063 120.06 64.3348 120.048 64.3438L119.477 64.7634C119.462 64.7704 119.42 64.7883 119.405 64.7942L119.093 64.8966C118.893 65.0002 119 64.86 118.928 65.0447C119.175 65.0447 119.302 65.0152 119.508 64.9029L119.747 64.7777C119.757 64.772 119.77 64.7654 119.781 64.7597C119.786 64.7571 120.105 64.6441 120.156 64.5103ZM81.7749 54.7325C81.7749 54.5873 81.9579 54.7325 81.8207 54.7355C81.7693 54.7365 81.7749 54.8541 81.7749 54.7325Z" fill="#2D318A"/>
<path d="M75.59 69.06C75.19 69.06 74.8967 68.9567 74.71 68.75C74.53 68.5367 74.44 68.2567 74.44 67.91C74.44 67.7833 74.45 67.65 74.47 67.51C74.49 67.3633 74.5233 67.2133 74.57 67.06C74.6433 66.8 74.75 66.5067 74.89 66.18C75.03 65.8533 75.1933 65.5233 75.38 65.19C75.5667 64.8567 75.7667 64.5433 75.98 64.25C76.1933 63.9567 76.41 63.7167 76.63 63.53C76.83 63.3567 77.0467 63.2267 77.28 63.14C77.52 63.0467 77.7467 63 77.96 63C78.3467 63 78.62 63.0867 78.78 63.26C78.9467 63.4333 79.03 63.6467 79.03 63.9C79.03 64.1 78.9867 64.3067 78.9 64.52C78.8133 64.7333 78.6933 64.94 78.54 65.14C78.3933 65.3333 78.2233 65.5 78.03 65.64C77.8367 65.78 77.63 65.87 77.41 65.91C77.3833 65.9167 77.35 65.92 77.31 65.92C77.2633 65.92 77.24 65.9067 77.24 65.88C77.24 65.86 77.2533 65.8367 77.28 65.81C77.3067 65.7767 77.3333 65.7467 77.36 65.72C77.4133 65.6667 77.4967 65.57 77.61 65.43C77.73 65.2833 77.8533 65.1167 77.98 64.93C78.1067 64.7367 78.21 64.55 78.29 64.37C78.41 64.1167 78.47 63.9 78.47 63.72C78.47 63.5333 78.4067 63.44 78.28 63.44C78.1867 63.44 78.06 63.5033 77.9 63.63C77.7467 63.75 77.5633 63.9567 77.35 64.25C77.19 64.4633 77.0367 64.69 76.89 64.93C76.75 65.1633 76.6267 65.3833 76.52 65.59C76.4133 65.79 76.33 65.9533 76.27 66.08C76.1433 66.38 76.03 66.7 75.93 67.04C75.83 67.3733 75.78 67.67 75.78 67.93C75.78 68.13 75.8167 68.2933 75.89 68.42C75.9633 68.54 76.09 68.6 76.27 68.6C76.4567 68.6 76.6467 68.5333 76.84 68.4C77.0333 68.26 77.2167 68.0867 77.39 67.88C77.57 67.6667 77.7333 67.4467 77.88 67.22C78.0333 66.9867 78.16 66.7733 78.26 66.58C78.3067 66.5867 78.3733 66.5933 78.46 66.6C78.5533 66.6067 78.6 66.67 78.6 66.79C78.6 66.8567 78.58 66.9433 78.54 67.05C78.5 67.15 78.43 67.2867 78.33 67.46C78.1167 67.8133 77.83 68.1267 77.47 68.4C77.11 68.6733 76.7467 68.8567 76.38 68.95C76.2333 68.99 76.0933 69.0167 75.96 69.03C75.8267 69.05 75.7033 69.06 75.59 69.06ZM80.2462 69.06C80.1528 69.06 80.0628 69.05 79.9762 69.03C79.8962 69.0167 79.7995 68.9867 79.6862 68.94C79.5395 68.88 79.4328 68.7767 79.3662 68.63C79.2995 68.4767 79.2662 68.2967 79.2662 68.09C79.2662 67.8433 79.3062 67.57 79.3862 67.27C79.4728 66.97 79.5828 66.6667 79.7162 66.36C79.8695 66.02 80.0428 65.6633 80.2362 65.29C80.4362 64.9167 80.6528 64.5767 80.8862 64.27C81.1262 63.9633 81.3762 63.7433 81.6362 63.61C81.7095 63.57 81.7928 63.5433 81.8862 63.53C81.9795 63.51 82.0728 63.5 82.1662 63.5C82.3462 63.5 82.5162 63.5267 82.6762 63.58C82.7362 63.6 82.7662 63.6267 82.7662 63.66C82.7662 63.68 82.7462 63.7067 82.7062 63.74C82.6595 63.7733 82.5095 63.93 82.2562 64.21C82.0095 64.4833 81.7328 64.89 81.4262 65.43C81.3928 65.49 81.3462 65.5733 81.2862 65.68C81.2328 65.78 81.1762 65.8833 81.1162 65.99C81.0628 66.0967 81.0162 66.19 80.9762 66.27C80.9362 66.3433 80.9162 66.38 80.9162 66.38C81.0895 66.1267 81.2695 65.8867 81.4562 65.66C81.6495 65.4333 81.8228 65.2367 81.9762 65.07C82.1295 64.8967 82.2362 64.78 82.2962 64.72C82.3495 64.68 82.4362 64.66 82.5562 64.66C82.6962 64.66 82.8395 64.7033 82.9862 64.79C83.1328 64.8767 83.2062 65.0333 83.2062 65.26C83.2062 65.3933 83.1695 65.5533 83.0962 65.74C83.0228 65.9267 82.9395 66.1133 82.8462 66.3C82.7528 66.48 82.6762 66.6367 82.6162 66.77C82.6028 66.8033 82.5662 66.8833 82.5062 67.01C82.4462 67.1367 82.3828 67.2833 82.3162 67.45C82.2495 67.6167 82.1895 67.7833 82.1362 67.95C82.0895 68.11 82.0662 68.2433 82.0662 68.35C82.0662 68.4833 82.1095 68.55 82.1962 68.55C82.2562 68.55 82.3295 68.5133 82.4162 68.44C82.5028 68.36 82.5828 68.2767 82.6562 68.19C82.7362 68.0967 82.7928 68.0267 82.8262 67.98C82.9662 67.7867 83.0928 67.58 83.2062 67.36C83.3262 67.14 83.4228 66.9567 83.4962 66.81C83.5228 66.7633 83.5562 66.74 83.5962 66.74C83.6428 66.74 83.6828 66.76 83.7162 66.8C83.7495 66.84 83.7528 66.8867 83.7262 66.94C83.6195 67.1533 83.4862 67.3967 83.3262 67.67C83.1728 67.9367 83.0095 68.18 82.8362 68.4C82.7028 68.5667 82.5495 68.7167 82.3762 68.85C82.2028 68.9767 82.0195 69.04 81.8262 69.04C81.5462 69.04 81.3495 68.9533 81.2362 68.78C81.1295 68.6067 81.0762 68.38 81.0762 68.1C81.0762 67.88 81.1062 67.66 81.1662 67.44C81.2328 67.22 81.3062 67 81.3862 66.78C81.4728 66.54 81.5562 66.3233 81.6362 66.13C81.7228 65.9367 81.7895 65.8067 81.8362 65.74C81.6962 65.84 81.5362 65.9967 81.3562 66.21C81.1828 66.4167 81.0162 66.6567 80.8562 66.93C80.6962 67.2033 80.5628 67.48 80.4562 67.76C80.3495 68.04 80.2962 68.3 80.2962 68.54C80.2962 68.7067 80.3328 68.8333 80.4062 68.92C80.4262 68.94 80.4362 68.96 80.4362 68.98C80.4362 69.0333 80.3728 69.06 80.2462 69.06ZM84.5624 69.06C84.2358 69.06 84.0058 68.9867 83.8724 68.84C83.7458 68.6867 83.6824 68.4967 83.6824 68.27C83.6824 68.03 83.7258 67.7733 83.8124 67.5C83.9058 67.22 84.0091 66.9633 84.1224 66.73C84.2424 66.49 84.3358 66.3067 84.4024 66.18C84.6758 65.6733 84.9891 65.3033 85.3424 65.07C85.7024 64.8367 86.0991 64.72 86.5324 64.72C86.6858 64.72 86.8658 64.7267 87.0724 64.74C87.2791 64.7533 87.4891 64.76 87.7024 64.76C87.8091 64.76 87.9124 64.7567 88.0124 64.75C88.1124 64.7433 88.2091 64.74 88.3024 64.74H88.3424C88.4558 64.74 88.5124 64.76 88.5124 64.8C88.5124 64.8267 88.4724 64.8567 88.3924 64.89C88.3058 64.9233 88.2024 65.0367 88.0824 65.23C87.9624 65.4167 87.8391 65.6433 87.7124 65.91C87.5858 66.1767 87.4658 66.4467 87.3524 66.72C87.2924 66.8733 87.2124 67.08 87.1124 67.34C87.0124 67.5933 86.9391 67.8533 86.8924 68.12C86.8858 68.1667 86.8791 68.21 86.8724 68.25C86.8724 68.2833 86.8724 68.3167 86.8724 68.35C86.8724 68.5167 86.9158 68.6 87.0024 68.6C87.1091 68.6 87.2191 68.5433 87.3324 68.43C87.4458 68.3167 87.5558 68.18 87.6624 68.02C87.7558 67.88 87.8491 67.7233 87.9424 67.55C88.0358 67.3767 88.1191 67.2167 88.1924 67.07C88.2658 66.9167 88.3191 66.81 88.3524 66.75C88.3724 66.71 88.3991 66.69 88.4324 66.69C88.4724 66.69 88.5091 66.72 88.5424 66.78C88.5758 66.8333 88.5791 66.8867 88.5524 66.94C88.4258 67.1867 88.2891 67.45 88.1424 67.73C87.9958 68.01 87.8358 68.2633 87.6624 68.49C87.3691 68.87 87.0291 69.06 86.6424 69.06C86.3491 69.06 86.1324 68.97 85.9924 68.79C85.8591 68.61 85.7924 68.3933 85.7924 68.14C85.7924 68.0267 85.8024 67.9167 85.8224 67.81C85.7491 67.93 85.6591 68.0867 85.5524 68.28C85.4458 68.4667 85.3224 68.6367 85.1824 68.79C85.0491 68.9433 84.8991 69.03 84.7324 69.05C84.7058 69.05 84.6791 69.05 84.6524 69.05C84.6258 69.0567 84.5958 69.06 84.5624 69.06ZM84.9324 68.55C84.9991 68.55 85.0858 68.49 85.1924 68.37C85.3058 68.25 85.4191 68.1 85.5324 67.92C85.6524 67.7333 85.7558 67.5467 85.8424 67.36C85.8624 67.3067 85.9091 67.1933 85.9824 67.02C86.0624 66.84 86.1491 66.6333 86.2424 66.4C86.3424 66.16 86.4424 65.92 86.5424 65.68C86.6424 65.44 86.7291 65.23 86.8024 65.05C86.8091 65.03 86.8124 65.0067 86.8124 64.98C86.8124 64.94 86.7924 64.92 86.7524 64.92C86.7124 64.92 86.6658 64.9367 86.6124 64.97C86.5591 64.9967 86.5091 65.0267 86.4624 65.06C86.3758 65.1267 86.2624 65.2667 86.1224 65.48C85.9891 65.6867 85.8458 65.93 85.6924 66.21C85.5458 66.49 85.4058 66.7767 85.2724 67.07C85.1391 67.3567 85.0291 67.62 84.9424 67.86C84.8624 68.0933 84.8224 68.27 84.8224 68.39C84.8224 68.4967 84.8591 68.55 84.9324 68.55ZM89.5409 69.08C89.3009 69.08 89.0843 69.0133 88.8909 68.88C88.6976 68.74 88.6009 68.5167 88.6009 68.21C88.6009 67.97 88.6476 67.6767 88.7409 67.33C88.8343 66.9833 88.9576 66.63 89.1109 66.27C89.2643 65.9033 89.4309 65.5733 89.6109 65.28H89.1809C89.1409 65.28 89.1209 65.2633 89.1209 65.23C89.1209 65.2033 89.1376 65.1733 89.1709 65.14C89.2043 65.1 89.2443 65.0733 89.2909 65.06C89.3976 65.0267 89.5343 64.9667 89.7009 64.88C89.8743 64.7867 90.0543 64.68 90.2409 64.56C90.4276 64.44 90.6043 64.32 90.7709 64.2C90.9376 64.08 91.0709 63.9767 91.1709 63.89C91.2309 63.8367 91.2943 63.8 91.3609 63.78C91.4343 63.76 91.5043 63.75 91.5709 63.75C91.6843 63.75 91.7709 63.77 91.8309 63.81C91.8909 63.85 91.8909 63.89 91.8309 63.93C91.7776 63.9633 91.7043 64.0467 91.6109 64.18C91.5176 64.3133 91.4209 64.46 91.3209 64.62C91.2276 64.78 91.1443 64.9233 91.0709 65.05H91.8309C91.8443 65.05 91.8509 65.06 91.8509 65.08C91.8509 65.1133 91.8376 65.1567 91.8109 65.21C91.7843 65.2567 91.7576 65.28 91.7309 65.28H90.9409C90.8076 65.5133 90.6609 65.78 90.5009 66.08C90.3409 66.38 90.1876 66.6867 90.0409 67C89.9009 67.3067 89.7843 67.5933 89.6909 67.86C89.5976 68.12 89.5509 68.3267 89.5509 68.48C89.5509 68.6467 89.6276 68.73 89.7809 68.73C89.9409 68.73 90.1209 68.6533 90.3209 68.5C90.4876 68.36 90.6443 68.1867 90.7909 67.98C90.9309 67.7867 91.0543 67.5867 91.1609 67.38C91.2743 67.1733 91.3676 66.9967 91.4409 66.85C91.4676 66.8033 91.5043 66.78 91.5509 66.78C91.5976 66.78 91.6343 66.8 91.6609 66.84C91.6943 66.8733 91.6976 66.9167 91.6709 66.97C91.5709 67.17 91.4443 67.4033 91.2909 67.67C91.1376 67.9367 90.9743 68.18 90.8009 68.4C90.6609 68.5733 90.5243 68.7067 90.3909 68.8C90.2643 68.8867 90.1276 68.9533 89.9809 69C89.8409 69.0533 89.6943 69.08 89.5409 69.08ZM93.53 69.08C93.1967 69.08 92.96 68.9867 92.82 68.8C92.6867 68.6067 92.62 68.3867 92.62 68.14C92.62 67.92 92.6667 67.6767 92.76 67.41C92.8533 67.1367 92.9667 66.8633 93.1 66.59C93.24 66.31 93.3833 66.0433 93.53 65.79C93.6767 65.5367 93.8033 65.31 93.91 65.11C93.8433 65.1233 93.7733 65.1367 93.7 65.15C93.6333 65.1567 93.5667 65.16 93.5 65.16C93.3467 65.16 93.2133 65.1367 93.1 65.09C93.0933 65.1167 93.0833 65.1433 93.07 65.17C93.0567 65.1967 93.0467 65.2167 93.04 65.23C92.8933 65.6167 92.7367 65.9933 92.57 66.36C92.4033 66.7267 92.2533 67.0267 92.12 67.26C92.0333 67.4133 91.9567 67.49 91.89 67.49C91.8367 67.49 91.81 67.45 91.81 67.37C91.81 67.3167 91.8233 67.2667 91.85 67.22C91.9833 66.9667 92.1367 66.6467 92.31 66.26C92.49 65.8733 92.6533 65.48 92.8 65.08C92.8067 65.0667 92.8133 65.0433 92.82 65.01C92.8333 64.97 92.8433 64.9367 92.85 64.91C92.7633 64.8033 92.72 64.6633 92.72 64.49C92.72 64.3767 92.75 64.2667 92.81 64.16C92.87 64.0467 92.9633 63.99 93.09 63.99C93.1633 63.99 93.23 64.0167 93.29 64.07C93.3567 64.1233 93.39 64.2067 93.39 64.32C93.39 64.4533 93.3433 64.6 93.25 64.76C93.2633 64.8067 93.3067 64.8433 93.38 64.87C93.4533 64.89 93.5333 64.9 93.62 64.9C93.7133 64.9 93.8033 64.8867 93.89 64.86C93.9833 64.8333 94.0467 64.7933 94.08 64.74C94.14 64.66 94.24 64.62 94.38 64.62C94.5 64.62 94.6333 64.6533 94.78 64.72C94.86 64.76 94.9267 64.82 94.98 64.9C95.0333 64.9733 95.06 65.0667 95.06 65.18C95.06 65.38 94.9733 65.6333 94.8 65.94C94.6133 66.2867 94.42 66.66 94.22 67.06C94.0267 67.46 93.8833 67.82 93.79 68.14C93.7633 68.2267 93.75 68.31 93.75 68.39C93.75 68.53 93.7933 68.6 93.88 68.6C93.9733 68.6 94.0767 68.54 94.19 68.42C94.31 68.3 94.4267 68.1567 94.54 67.99C94.6867 67.7767 94.82 67.55 94.94 67.31C95.0667 67.07 95.1533 66.9033 95.2 66.81C95.22 66.77 95.25 66.75 95.29 66.75C95.33 66.75 95.3667 66.7733 95.4 66.82C95.44 66.86 95.4467 66.9067 95.42 66.96C95.3333 67.14 95.2133 67.3733 95.06 67.66C94.9067 67.94 94.7333 68.2033 94.54 68.45C94.4 68.63 94.2467 68.78 94.08 68.9C93.9133 69.02 93.73 69.08 93.53 69.08ZM96.2745 69.06C95.9479 69.06 95.7179 68.9867 95.5845 68.84C95.4579 68.6867 95.3945 68.4967 95.3945 68.27C95.3945 68.03 95.4379 67.7733 95.5245 67.5C95.6179 67.22 95.7212 66.9633 95.8345 66.73C95.9545 66.49 96.0479 66.3067 96.1145 66.18C96.3879 65.6733 96.7012 65.3033 97.0545 65.07C97.4145 64.8367 97.8112 64.72 98.2445 64.72C98.3979 64.72 98.5779 64.7267 98.7845 64.74C98.9912 64.7533 99.2012 64.76 99.4145 64.76C99.5212 64.76 99.6245 64.7567 99.7245 64.75C99.8245 64.7433 99.9212 64.74 100.015 64.74H100.055C100.168 64.74 100.225 64.76 100.225 64.8C100.225 64.8267 100.185 64.8567 100.105 64.89C100.018 64.9233 99.9145 65.0367 99.7945 65.23C99.6745 65.4167 99.5512 65.6433 99.4245 65.91C99.2979 66.1767 99.1779 66.4467 99.0645 66.72C99.0045 66.8733 98.9245 67.08 98.8245 67.34C98.7245 67.5933 98.6512 67.8533 98.6045 68.12C98.5979 68.1667 98.5912 68.21 98.5845 68.25C98.5845 68.2833 98.5845 68.3167 98.5845 68.35C98.5845 68.5167 98.6279 68.6 98.7145 68.6C98.8212 68.6 98.9312 68.5433 99.0445 68.43C99.1579 68.3167 99.2679 68.18 99.3745 68.02C99.4679 67.88 99.5612 67.7233 99.6545 67.55C99.7479 67.3767 99.8312 67.2167 99.9045 67.07C99.9779 66.9167 100.031 66.81 100.065 66.75C100.085 66.71 100.111 66.69 100.145 66.69C100.185 66.69 100.221 66.72 100.255 66.78C100.288 66.8333 100.291 66.8867 100.265 66.94C100.138 67.1867 100.001 67.45 99.8545 67.73C99.7079 68.01 99.5479 68.2633 99.3745 68.49C99.0812 68.87 98.7412 69.06 98.3545 69.06C98.0612 69.06 97.8445 68.97 97.7045 68.79C97.5712 68.61 97.5045 68.3933 97.5045 68.14C97.5045 68.0267 97.5145 67.9167 97.5345 67.81C97.4612 67.93 97.3712 68.0867 97.2645 68.28C97.1579 68.4667 97.0345 68.6367 96.8945 68.79C96.7612 68.9433 96.6112 69.03 96.4445 69.05C96.4179 69.05 96.3912 69.05 96.3645 69.05C96.3379 69.0567 96.3079 69.06 96.2745 69.06ZM96.6445 68.55C96.7112 68.55 96.7979 68.49 96.9045 68.37C97.0179 68.25 97.1312 68.1 97.2445 67.92C97.3645 67.7333 97.4679 67.5467 97.5545 67.36C97.5745 67.3067 97.6212 67.1933 97.6945 67.02C97.7745 66.84 97.8612 66.6333 97.9545 66.4C98.0545 66.16 98.1545 65.92 98.2545 65.68C98.3545 65.44 98.4412 65.23 98.5145 65.05C98.5212 65.03 98.5245 65.0067 98.5245 64.98C98.5245 64.94 98.5045 64.92 98.4645 64.92C98.4245 64.92 98.3779 64.9367 98.3245 64.97C98.2712 64.9967 98.2212 65.0267 98.1745 65.06C98.0879 65.1267 97.9745 65.2667 97.8345 65.48C97.7012 65.6867 97.5579 65.93 97.4045 66.21C97.2579 66.49 97.1179 66.7767 96.9845 67.07C96.8512 67.3567 96.7412 67.62 96.6545 67.86C96.5745 68.0933 96.5345 68.27 96.5345 68.39C96.5345 68.4967 96.5712 68.55 96.6445 68.55ZM100.973 69.05C100.813 69.05 100.683 69.0133 100.583 68.94C100.49 68.8667 100.426 68.77 100.393 68.65C100.353 68.51 100.333 68.3533 100.333 68.18C100.333 67.96 100.36 67.73 100.413 67.49C100.473 67.2433 100.546 67.0067 100.633 66.78C100.66 66.7067 100.703 66.59 100.763 66.43C100.83 66.27 100.896 66.0967 100.963 65.91C101.03 65.7167 101.086 65.53 101.133 65.35C101.18 65.17 101.203 65.0233 101.203 64.91C101.203 64.8367 101.193 64.7867 101.173 64.76C101.14 64.7067 101.156 64.6833 101.223 64.69C101.276 64.6967 101.33 64.7067 101.383 64.72C101.443 64.7267 101.5 64.74 101.553 64.76C101.82 64.8467 102.003 64.9667 102.103 65.12C102.203 65.2667 102.253 65.4133 102.253 65.56C102.253 65.5867 102.253 65.6133 102.253 65.64C102.253 65.66 102.25 65.6833 102.243 65.71C102.23 65.7833 102.183 65.9233 102.103 66.13C102.023 66.3367 101.93 66.57 101.823 66.83C101.723 67.09 101.626 67.3433 101.533 67.59C101.446 67.8367 101.383 68.04 101.343 68.2C101.336 68.2267 101.33 68.25 101.323 68.27C101.323 68.2833 101.323 68.2967 101.323 68.31C101.323 68.39 101.35 68.43 101.403 68.43C101.443 68.43 101.5 68.4 101.573 68.34C101.673 68.2467 101.8 68.09 101.953 67.87C102.113 67.6433 102.296 67.3333 102.503 66.94C102.656 66.6533 102.776 66.37 102.863 66.09C102.956 65.81 103.003 65.5633 103.003 65.35C103.003 65.11 102.94 64.93 102.813 64.81C102.786 64.7833 102.773 64.77 102.773 64.77C102.773 64.7567 102.813 64.7467 102.893 64.74C102.926 64.74 102.96 64.74 102.993 64.74C103.033 64.7333 103.066 64.73 103.093 64.73C103.446 64.73 103.703 64.79 103.863 64.91C104.03 65.0233 104.113 65.16 104.113 65.32C104.113 65.3533 104.106 65.3967 104.093 65.45C104.046 65.6233 103.966 65.8367 103.853 66.09C103.746 66.3433 103.61 66.6067 103.443 66.88C103.33 67.0733 103.25 67.24 103.203 67.38C103.156 67.52 103.133 67.6533 103.133 67.78C103.133 68.0333 103.203 68.16 103.343 68.16C103.456 68.16 103.57 68.0867 103.683 67.94C103.763 67.8467 103.843 67.7333 103.923 67.6C104.01 67.4667 104.09 67.3333 104.163 67.2C104.236 67.06 104.296 66.9433 104.343 66.85C104.363 66.8033 104.4 66.78 104.453 66.78C104.493 66.78 104.53 66.8 104.563 66.84C104.596 66.8733 104.6 66.9167 104.573 66.97C104.513 67.0833 104.44 67.2267 104.353 67.4C104.273 67.5667 104.176 67.7333 104.063 67.9C103.956 68.06 103.836 68.19 103.703 68.29C103.563 68.3967 103.423 68.45 103.283 68.45C103.136 68.45 103.026 68.3933 102.953 68.28C102.88 68.1667 102.843 68.0367 102.843 67.89C102.843 67.8633 102.843 67.8367 102.843 67.81C102.843 67.7833 102.846 67.7567 102.853 67.73C102.566 68.09 102.26 68.4 101.933 68.66C101.606 68.92 101.286 69.05 100.973 69.05ZM105.434 69.06C105.107 69.06 104.877 68.9867 104.744 68.84C104.617 68.6867 104.554 68.4967 104.554 68.27C104.554 68.03 104.597 67.7733 104.684 67.5C104.777 67.22 104.88 66.9633 104.994 66.73C105.114 66.49 105.207 66.3067 105.274 66.18C105.547 65.6733 105.86 65.3033 106.214 65.07C106.574 64.8367 106.97 64.72 107.404 64.72C107.557 64.72 107.737 64.7267 107.944 64.74C108.15 64.7533 108.36 64.76 108.574 64.76C108.68 64.76 108.784 64.7567 108.884 64.75C108.984 64.7433 109.08 64.74 109.174 64.74H109.214C109.327 64.74 109.384 64.76 109.384 64.8C109.384 64.8267 109.344 64.8567 109.264 64.89C109.177 64.9233 109.074 65.0367 108.954 65.23C108.834 65.4167 108.71 65.6433 108.584 65.91C108.457 66.1767 108.337 66.4467 108.224 66.72C108.164 66.8733 108.084 67.08 107.984 67.34C107.884 67.5933 107.81 67.8533 107.764 68.12C107.757 68.1667 107.75 68.21 107.744 68.25C107.744 68.2833 107.744 68.3167 107.744 68.35C107.744 68.5167 107.787 68.6 107.874 68.6C107.98 68.6 108.09 68.5433 108.204 68.43C108.317 68.3167 108.427 68.18 108.534 68.02C108.627 67.88 108.72 67.7233 108.814 67.55C108.907 67.3767 108.99 67.2167 109.064 67.07C109.137 66.9167 109.19 66.81 109.224 66.75C109.244 66.71 109.27 66.69 109.304 66.69C109.344 66.69 109.38 66.72 109.414 66.78C109.447 66.8333 109.45 66.8867 109.424 66.94C109.297 67.1867 109.16 67.45 109.014 67.73C108.867 68.01 108.707 68.2633 108.534 68.49C108.24 68.87 107.9 69.06 107.514 69.06C107.22 69.06 107.004 68.97 106.864 68.79C106.73 68.61 106.664 68.3933 106.664 68.14C106.664 68.0267 106.674 67.9167 106.694 67.81C106.62 67.93 106.53 68.0867 106.424 68.28C106.317 68.4667 106.194 68.6367 106.054 68.79C105.92 68.9433 105.77 69.03 105.604 69.05C105.577 69.05 105.55 69.05 105.524 69.05C105.497 69.0567 105.467 69.06 105.434 69.06ZM105.804 68.55C105.87 68.55 105.957 68.49 106.064 68.37C106.177 68.25 106.29 68.1 106.404 67.92C106.524 67.7333 106.627 67.5467 106.714 67.36C106.734 67.3067 106.78 67.1933 106.854 67.02C106.934 66.84 107.02 66.6333 107.114 66.4C107.214 66.16 107.314 65.92 107.414 65.68C107.514 65.44 107.6 65.23 107.674 65.05C107.68 65.03 107.684 65.0067 107.684 64.98C107.684 64.94 107.664 64.92 107.624 64.92C107.584 64.92 107.537 64.9367 107.484 64.97C107.43 64.9967 107.38 65.0267 107.334 65.06C107.247 65.1267 107.134 65.2667 106.994 65.48C106.86 65.6867 106.717 65.93 106.564 66.21C106.417 66.49 106.277 66.7767 106.144 67.07C106.01 67.3567 105.9 67.62 105.814 67.86C105.734 68.0933 105.694 68.27 105.694 68.39C105.694 68.4967 105.73 68.55 105.804 68.55ZM110.262 69.06C109.935 69.06 109.705 68.9867 109.572 68.84C109.445 68.6867 109.382 68.4967 109.382 68.27C109.382 68.03 109.425 67.7733 109.512 67.5C109.605 67.22 109.709 66.9633 109.822 66.73C109.942 66.49 110.035 66.3067 110.102 66.18C110.375 65.6733 110.689 65.3033 111.042 65.07C111.402 64.8367 111.799 64.72 112.232 64.72C112.385 64.72 112.565 64.7267 112.772 64.74C112.979 64.7533 113.189 64.76 113.402 64.76C113.509 64.76 113.612 64.7567 113.712 64.75C113.812 64.7433 113.909 64.74 114.002 64.74H114.042C114.155 64.74 114.212 64.76 114.212 64.8C114.212 64.8267 114.172 64.8567 114.092 64.89C114.005 64.9233 113.902 65.0367 113.782 65.23C113.662 65.4167 113.539 65.6433 113.412 65.91C113.285 66.1767 113.165 66.4467 113.052 66.72C112.992 66.8733 112.912 67.08 112.812 67.34C112.712 67.5933 112.639 67.8533 112.592 68.12C112.585 68.1667 112.579 68.21 112.572 68.25C112.572 68.2833 112.572 68.3167 112.572 68.35C112.572 68.5167 112.615 68.6 112.702 68.6C112.809 68.6 112.919 68.5433 113.032 68.43C113.145 68.3167 113.255 68.18 113.362 68.02C113.455 67.88 113.549 67.7233 113.642 67.55C113.735 67.3767 113.819 67.2167 113.892 67.07C113.965 66.9167 114.019 66.81 114.052 66.75C114.072 66.71 114.099 66.69 114.132 66.69C114.172 66.69 114.209 66.72 114.242 66.78C114.275 66.8333 114.279 66.8867 114.252 66.94C114.125 67.1867 113.989 67.45 113.842 67.73C113.695 68.01 113.535 68.2633 113.362 68.49C113.069 68.87 112.729 69.06 112.342 69.06C112.049 69.06 111.832 68.97 111.692 68.79C111.559 68.61 111.492 68.3933 111.492 68.14C111.492 68.0267 111.502 67.9167 111.522 67.81C111.449 67.93 111.359 68.0867 111.252 68.28C111.145 68.4667 111.022 68.6367 110.882 68.79C110.749 68.9433 110.599 69.03 110.432 69.05C110.405 69.05 110.379 69.05 110.352 69.05C110.325 69.0567 110.295 69.06 110.262 69.06ZM110.632 68.55C110.699 68.55 110.785 68.49 110.892 68.37C111.005 68.25 111.119 68.1 111.232 67.92C111.352 67.7333 111.455 67.5467 111.542 67.36C111.562 67.3067 111.609 67.1933 111.682 67.02C111.762 66.84 111.849 66.6333 111.942 66.4C112.042 66.16 112.142 65.92 112.242 65.68C112.342 65.44 112.429 65.23 112.502 65.05C112.509 65.03 112.512 65.0067 112.512 64.98C112.512 64.94 112.492 64.92 112.452 64.92C112.412 64.92 112.365 64.9367 112.312 64.97C112.259 64.9967 112.209 65.0267 112.162 65.06C112.075 65.1267 111.962 65.2667 111.822 65.48C111.689 65.6867 111.545 65.93 111.392 66.21C111.245 66.49 111.105 66.7767 110.972 67.07C110.839 67.3567 110.729 67.62 110.642 67.86C110.562 68.0933 110.522 68.27 110.522 68.39C110.522 68.4967 110.559 68.55 110.632 68.55ZM115.501 69.07C115.094 69.07 114.757 68.95 114.491 68.71C114.224 68.47 114.091 68.1367 114.091 67.71C114.091 67.5633 114.107 67.41 114.141 67.25C114.174 67.09 114.227 66.9533 114.301 66.84C114.374 66.7267 114.471 66.67 114.591 66.67C114.664 66.67 114.717 66.6933 114.751 66.74C114.831 66.5867 114.917 66.4333 115.011 66.28C115.104 66.1267 115.197 65.97 115.291 65.81C115.397 65.6367 115.521 65.4467 115.661 65.24C115.807 65.0267 115.974 64.84 116.161 64.68C116.347 64.5133 116.551 64.42 116.771 64.4C116.797 64.3933 116.824 64.39 116.851 64.39C116.884 64.39 116.914 64.39 116.941 64.39C117.014 64.39 117.091 64.3933 117.171 64.4C117.251 64.4067 117.311 64.4133 117.351 64.42C117.364 64.4267 117.374 64.4467 117.381 64.48C117.387 64.5133 117.371 64.53 117.331 64.53C117.304 64.53 117.251 64.55 117.171 64.59C117.091 64.6233 117.044 64.7067 117.031 64.84C117.017 65.3067 116.987 65.7733 116.941 66.24C116.901 66.7067 116.837 67.0967 116.751 67.41C116.711 67.57 116.647 67.7433 116.561 67.93C116.474 68.1167 116.371 68.2833 116.251 68.43C116.131 68.5767 116.004 68.6767 115.871 68.73C116.004 68.73 116.144 68.69 116.291 68.61C116.444 68.5233 116.584 68.42 116.711 68.3C116.844 68.18 116.944 68.0733 117.011 67.98C117.157 67.7733 117.291 67.5567 117.411 67.33C117.537 67.0967 117.631 66.9167 117.691 66.79C117.711 66.7567 117.734 66.74 117.761 66.74C117.794 66.74 117.824 66.76 117.851 66.8C117.877 66.84 117.891 66.8833 117.891 66.93C117.891 66.9433 117.887 66.9567 117.881 66.97C117.881 66.9833 117.877 66.9967 117.871 67.01C117.751 67.25 117.617 67.4933 117.471 67.74C117.331 67.98 117.167 68.2033 116.981 68.41C116.794 68.61 116.581 68.77 116.341 68.89C116.101 69.01 115.821 69.07 115.501 69.07ZM114.851 68.44C114.924 68.44 114.997 68.4167 115.071 68.37C115.144 68.3233 115.204 68.25 115.251 68.15C115.351 67.93 115.441 67.6767 115.521 67.39C115.601 67.1033 115.671 66.82 115.731 66.54C115.791 66.2533 115.841 66 115.881 65.78C115.927 65.5533 115.961 65.39 115.981 65.29C115.881 65.41 115.757 65.58 115.611 65.8C115.471 66.02 115.334 66.24 115.201 66.46C115.074 66.68 114.977 66.8567 114.911 66.99C114.917 67.1433 114.857 67.28 114.731 67.4C114.604 67.52 114.494 67.6433 114.401 67.77V67.88C114.401 67.9067 114.401 67.94 114.401 67.98C114.407 68.02 114.414 68.0567 114.421 68.09C114.454 68.1967 114.511 68.2833 114.591 68.35C114.677 68.41 114.764 68.44 114.851 68.44Z" fill="black"/>
</svg>
